<?xml version="1.0" encoding="UTF-8"?><svg id="Layer_1" xmlns="http://www.w3.org/2000/svg" viewBox="0 0 302.49 443.51"><defs><style>.cls-1{fill:#ff7f00;fill-rule:evenodd;}</style></defs><path d="M297.73,199.33h-164.05c-34.63,0-45.57,17.92-45.57,36.46s10.94,36.46,45.57,36.46h164.05v66.84h-167.4C40.71,339.08,0,298.07,0,235.79c0-57.12,40.71-103.29,130.33-103.29h167.4v66.84Z"/><path class="cls-1" d="M38.01,7.65c-.1.56.11.98.56,1.29-.23-.41-.04-1.01-.56-1.29Z"/><path class="cls-1" d="M39.46,8.35c.31.37.05,1,.56,1.29-.11-.46.09-1.07-.56-1.29Z"/><path class="cls-1" d="M39.59,12.4c.02.54.32.42.75,1.02.1-.33-.06-.54-.09-.81-.29-.2-.36.01-.66-.21Z"/><path class="cls-1" d="M38.58,28.6c-.02.24-.04.48-.07.71.47.13.39.51.78.67.1-.61-.14-1.08-.72-1.38Z"/><path class="cls-1" d="M40.59,10.74c-.37-.09-.17.97.24,1.09.33-.16-.06-.38.09-.89-.15.02-.31.04-.32-.2Z"/><path class="cls-1" d="M39.41,30.62c.28.53-.01.69-.1,1.07.41.09.64-.18.74-.68-.21-.13-.42-.26-.64-.39Z"/><path class="cls-1" d="M42.59,20.09c-.4-.02-.01,1.02.57,1.11.21-.56-.7-.59-.57-1.11Z"/><path class="cls-1" d="M41.42,36.2c.08.22.42.55.13.46-.06.37.56.43.78.67-.22.37-.12.9.03,1.53.7-.34,1.13.63,1.74,1.26-.19-.43-.52-.79-.38-1.37-.48.23-.41-.11-.96-.59.1-.09.19-.19.21-.44-.4-.27-.59-.64-.57-1.11-.39-.26-.77-.5-.98-.41Z"/><path class="cls-1" d="M43.25,22.01c-.02.24-.04.48-.07.72.14-.04.46-.01.48.29.36.09.09-.93-.41-1.01Z"/><path class="cls-1" d="M46.58,22.54c.11.46.42.83.91,1.13-.16-.46-.46-1.31-.91-1.13Z"/><path class="cls-1" d="M45.49,48.71c-.06.53.39,1.19.75,1.03-.22-.36-.34-.76-.75-1.03Z"/><path class="cls-1" d="M48.55,26.77c.19.48-.02,1.15.71,1.38-.12-.51-.24-1.03-.71-1.38Z"/><path class="cls-1" d="M50.33,43.92c.15.67.51.41,1.09,1.05-.07-.2-.14-.39-.11-.64-.69.07-.58-.85-.98-.41Z"/><path class="cls-1" d="M52.22,30.91c.37.04-.13-.95.14-1.43-.61-.23-.18.95-.14,1.43Z"/><path class="cls-1" d="M54.11,36.04c.27.44.36.98.89,1.3-.15-.62-.45-1.16-.51-1.82-.42-.4.04.91-.39.52Z"/><path class="cls-1" d="M52.38,56.33c-.63.08.33.86.4,1.19.53-.04-.31-.87-.4-1.19Z"/><path class="cls-1" d="M54.73,56.45c.17-.48-.53-.55-.24-1.09-.36-.14-.6-.03-.7.32.64.18.51.98.94.76Z"/><path class="cls-1" d="M53.76,66.82c.05.6.15,1.18.7,1.56-.21-.53-.31-1.11-.7-1.56Z"/><path class="cls-1" d="M57.35,30.27c-.18.42.18.6.08.99.49.39.55-.07.56-.6-.21-.13-.43-.26-.64-.39Z"/><path class="cls-1" d="M57.07,35.02c-.18.54.11.86.22,1.27.36.04.34-1.17-.22-1.27Z"/><path class="cls-1" d="M58.59,33.3c-.04.14.05.21.14.28.13,1.31,1.14,2.22,1.36,3.48.61.48.7-.05,1.17.15-.06-.75-.56-.35-.76-.85-.04-.63.35-.37.08-.89-.49.2-.77-.65-1.26-.96.17-.48-.1-.75-.06-1.17-.5-.54-.18.5-.67-.03Z"/><path class="cls-1" d="M57.46,63.42c-.04-.34.59.38.62.57.61.08-.35-.49-.09-.81-.5-.47-.52-.02-.83-.13.01.45.12.86.22,1.27.48.24.28-.53.09-.9Z"/><path class="cls-1" d="M61.52,19.98c.04.55-.13,1.2.54,1.46-.14-.51-.09-1.1-.54-1.46Z"/><path class="cls-1" d="M62.07,19.56c-.42-.07.05.87.41,1.01.32-.55-.38-.62-.41-1.01Z"/><path class="cls-1" d="M62.36,21.82c.39.27.52.02.83.13-.04-.27-.26-.45-.27-.73-.33-.07-.47.22-.56.6Z"/><path class="cls-1" d="M58.49,65c-.57.21.4,1.18.35,1.72.78.1-.04-1.27-.35-1.72Z"/><path class="cls-1" d="M65.45,14.07c.11.47.69.97,1.55,1.51-.5-.51-.76-1.14-1.55-1.51Z"/><path class="cls-1" d="M60.68,70.49c.29-.13.3-1.01-.22-1.27-.27.12-.4,1.05.22,1.27Z"/><path class="cls-1" d="M64.17,31.43c-.11.61.99,2.04,1.09,1.04-.69-.2-.67-.72-1.09-1.04Z"/><path class="cls-1" d="M63.53,43.7c-.42.32.24,1.6,1,1.94-.03-.34.16-.26.35-.16.08-.84-1.29-1.01-1.35-1.78Z"/><path class="cls-1" d="M66.49,22.84c-.14.75.16,1.3.68,1.74-.39-.51-.07-1.34-.68-1.74Z"/><path class="cls-1" d="M61.77,73.24c.08.22.16.44-.03.36.85.69.75,1.82,1.62,2.51-.73-1.27-.04-2.38-1.59-2.87Z"/><path class="cls-1" d="M66.96,37.68c-.22.5.47.58.77.85-.07-.2-.14-.39-.11-.63-.16.05-.38-.03-.66-.21Z"/><path class="cls-1" d="M63.51,76.39c-.49-.18.12.47-.07.71.4-.52.29.46.94.77.3-.53-.71-.47-.41-1.01-.23-.12-.46-.25-.47-.47Z"/><path class="cls-1" d="M64.19,78.13c.32.95-.27,1.47.49,2-.15-.99.71-.04.59-.96-.63.27-.54-.76-1.08-1.04Z"/><path class="cls-1" d="M70.97,36.35c.24.69.97,1.47,1.12.69-.55-.4-.58-.64-1.12-.69Z"/><path class="cls-1" d="M66.62,82.83c-.12.74.51,1.13.68,1.74-.06.38-.44.14-.83-.13.26,1.08,1.11.61,1.67,1.97.23-.45.05-.4.1-1.07-.65-.45,0,.26-.23.62-.56-1-.53-2.27-1.4-3.12Z"/><path class="cls-1" d="M71.5,63.14c.06.72.8,1.23,1.23,1.32-.27-.63-.63-1.31-1.23-1.32Z"/><path class="cls-1" d="M73.12,51.28c.23.52-.04.22-.07.71.33.15.46-.1.69-.14-.03-.27-.38-.39-.62-.57Z"/><path class="cls-1" d="M78.64,64.49c.23.64.49,1.26,1.2,1.68-.46-.5-.67-1.75-1.2-1.68Z"/><path class="cls-1" d="M84.46,51.05c-.07.43.2.71.24,1.09.42.4-.03-.91.39-.52-.03-.28-.38-.39-.62-.57Z"/><path class="cls-1" d="M85.51,41.68c.07.65.56,1.11,1.21,1.5-.37-.49-.78-1.57-1.21-1.5Z"/><path class="cls-1" d="M83.43,80.1c-.02.24-.05.48-.07.71.15-.02.31-.04.32.2.4.13.17-.85-.25-.91Z"/><path class="cls-1" d="M88.12,53.48c.02.73.67,1.18.49,2,.33.15.36-.28.55-.42.36.31.35,1.05.77.85-.03-.38-.61-.52-.41-1.01-.75.04-.65-.97-1.39-1.42Z"/><path class="cls-1" d="M86.82,81.79c.12.23.05.55.27.73.47.33.62-.29.41-.7-.5-.54-.18.5-.67-.03Z"/><path class="cls-1" d="M92.62,61.34c-.41.26.4,2.13,1,1.94-.4-.61-.99-1.14-1-1.94Z"/><path class="cls-1" d="M95.06,58.69c-.03.59.29,1.01.89,1.3-.32-.43-.4-.96-.89-1.3Z"/><path class="cls-1" d="M94.78,68.91c.17.49.17,1.06.71,1.38-.12-.51-.24-1.03-.71-1.38Z"/><path class="cls-1" d="M96.65,74.21c.01.39.4.62.41,1.01.22.08.17-.36.23-.62-.21-.13-.43-.26-.64-.39Z"/><path class="cls-1" d="M97.99,76.17c-.13.51.39.74.4,1.19.28.08.18-1.09-.4-1.19Z"/><path class="cls-1" d="M96.26,101.94c.13.12.16.02.18-.08.18.14.1.41.11.63.27.28.71-.12.8.49.57.33-.29-.8.21-.44-.27-.41-1.28-1.55-1.3-.61Z"/><path class="cls-1" d="M97.66,103.18c-.09.27.09.41.29.55-.01.26-.02.52-.21.44.03.27.39.39.62.57.03-.3.06-.6.08-.89-.47-.13-.39-.51-.78-.67Z"/><path class="cls-1" d="M97.63,107.13c.08.42.38.74.75,1.03.12-.51-.29-.78-.75-1.03Z"/><path class="cls-1" d="M100.78,84.3c.2.65.8.3.85-.05-.36-.7-.54.03-.85.05Z"/><path class="cls-1" d="M101.26,82.71c.23.79.51,1.94,1.34,1.95-.54-.61-.34-1.55-1.34-1.95Z"/><path class="cls-1" d="M101.37,85.23c.32.42.4.96.89,1.3-.15-.5-.48-.92-.54-1.46-.18-.06-.14.29-.35.16Z"/><path class="cls-1" d="M101.08,88.27c.8,1.13.66,1.56,1.15.33-.56-.46-.79-.27-1.15-.33Z"/><path class="cls-1" d="M99.95,111.2c-.02.58.22,1.04.72,1.38-.17-.49-.17-1.06-.72-1.38Z"/><path class="cls-1" d="M102.66,118.34c1.17,1.07,1.36,2.4,2.44,2.82-.55-1-1.13-1.99-1.93-2.88.05-.19.3.03.5.12-.18-1.09-.9-.79-1.01-.05Z"/><path class="cls-1" d="M106.26,96.16c.14.84.81-.06.8.49.59-.23-.72-.82-.8-.49Z"/><path class="cls-1" d="M106.88,96.73c.1.47.33.87.91,1.12-.11-.46-.42-.83-.91-1.12Z"/><path class="cls-1" d="M106.66,124.38c-.02.24-.04.48-.07.71.28.2.36,0,.66.21-.24-.29-.19-.71-.59-.93Z"/><path class="cls-1" d="M109.46,107.02c.31.11.34-.34.83.13-.24-.7-1.3-1.17-.83-.13Z"/><path class="cls-1" d="M127.28,122.47c-.17.92.71,1.15,1.09,1.05-.22-.41-.68-.72-1.09-1.05Z"/><path class="cls-1" d="M134.24,136.56c-.02.75.72.31.73,1.2-.18.44-.5-.42-.8-.49.09.65.58,1,1.08,1.04-.16-.38-.14-.57.07-.71.76.39.39,1.31,1.2,1.68-.16-.33-.43-.61-.24-1.09-.85-.58-1.04-1.39-1-1.94-.33.14-.32.93-1.04.31Z"/><path class="cls-1" d="M137.13,141.74c-.02.24-.04.47-.07.71.59.38.44.48.96.59.04-.64-1.12-1.05-.25-.91.02-.46-.54-.38-.64-.39Z"/><path class="cls-1" d="M137.76,144.02c.23-.12.71.25,1.13.5l.05-.53c-.19-.09-.28-.22-.3-.38-.34.15-.16.25-.65-.21-.01.33-.23.26-.23.62Z"/><path class="cls-1" d="M138.55,146.39c.58.31.53.9,1.07,1.22-.11-.69-.83-1.11-.67-1.92-.52-.08-.12.32-.4.7Z"/><path class="cls-1" d="M140.58,148.2c-.41-.31-.69-.36-.69.14.12.17.24.34.46.47.14-.08.21-.3.23-.62Z"/><path class="cls-1" d="M140.53,148.74c0,.33-.23.26-.23.62.27.21.44-.05.48.29.22.08.18-.37.23-.62-.16-.1-.32-.2-.48-.3Z"/><path class="cls-1" d="M141.67,149.24c-.23,0-.21,1.34.36,1.54-.07-.54-.03-1.13-.36-1.54Z"/><path class="cls-1" d="M144.93,157.67c.5.17.56.54.94.77.17-.48-.41-.61-.24-1.09-.38-.16-.76-.34-.71.33Z"/><path class="cls-1" d="M147.41,161.84c-.02.47.17.84.57,1.11l.07-.71c-.21-.13-.43-.26-.64-.39Z"/><path class="cls-1" d="M148.69,164.51c.18.6.46,1.16.68,1.74.44.35-.03-1.05.4-.7-.09-.39-.29-.2-.48-.29-.24-.23-.09-.65-.61-.75Z"/><path class="cls-1" d="M150.58,165.86c.01.39.58.53.59.93.29-.22.15-.61-.06-1.17-.3-.16-.17.52-.53.24Z"/><path class="cls-1" d="M150.91,169.65c.94.6.87,1.65,1.29,2.49.83.29.08-1.3.35-1.87-.56.11-.5.34-1.14-.51.07-.77.39-.82-.02-1.53-.56.12-.49.49-.47,1.41Z"/><path class="cls-1" d="M152.12,169.26c.19.65.72,1.15.84,1.84.22-.17-.06-1.56-.84-1.84Z"/><path class="cls-1" d="M154.07,171.97c-.05.31.16.5.09.81.46.26.35-.59.87-.23-.08-.3-.31-.54-.61-.75.02.71.23.62-.35.16Z"/><path class="cls-1" d="M156.23,175.94c-.1.33.06.54.09.81.15-.21.53.04.55-.42-.35.11-.2-.14-.64-.39Z"/><path class="cls-1" d="M179.21,224.61c.07.82.66,1.41,1.34,1.96-.17-.67-.22-1.38-.49-2-.34-.1-.55.06-.85.05Z"/><path class="cls-1" d="M187.83,237.27c-.19.49.38.63.41,1.01.36.1.09-.93-.41-1.01Z"/><path class="cls-1" d="M194.77,251.54c-.35.17.27,1.35.86,1.66-.16-.61-.57-1.11-.86-1.66Z"/><path class="cls-1" d="M198.19,258.36c.59.54,1.23,1.74,1.69,1.79-.32-.66-1.06-1.82-1.69-1.79Z"/><path class="cls-1" d="M206.08,271.51c.06.6.53,1.01.7,1.56.3-.09-.08-1.32-.7-1.56Z"/><path class="cls-1" d="M212.46,286.38c.23-.05.61.19.83.14-.08-.3-.31-.54-.61-.75,0,.33-.23.26-.23.61Z"/><path class="cls-1" d="M208.69,348.34c.34,1.21,1.73,1.95,2.07,3.16.37-.86-1.25-2.28-2.07-3.16Z"/><path class="cls-1" d="M211.1,351.51c-.03.59.29,1.01.89,1.3-.18-.49-.47-.93-.89-1.3Z"/><path class="cls-1" d="M227.86,311.33c.2.04.35-.03.37-.34.48.93.57,1.18,1.32,2.13-.26-1.02-.73-1.94-1.43-2.77.06.62-.22.55-.26.97Z"/><path class="cls-1" d="M228.92,316.32c.25-.14.84.37.87-.23-.3-.56-.82-.34-.87.23Z"/><path class="cls-1" d="M229.95,314.3c-.22-.08-.18.37-.23.62.37.28.62.35.82.31,0-.39-.7-.47-.59-.93Z"/><path class="cls-1" d="M249.27,346.18c.11.59.62.62.94.77-.08-.31-.31-.54-.61-.75-.02.17-.21.02-.34-.02Z"/><path class="cls-1" d="M251.48,347.73c.03.44.84.66.96.59-.3-.6-.64-.75-.96-.59Z"/><path class="cls-1" d="M252.24,350.46c.41,1.3,1.31,2.37,2.04,3.52.28-.46.59.33,1.12.69-.91-1.64-2.01-2.48-3.15-4.2Z"/><path class="cls-1" d="M254.74,354.45c.03.61.68.94,1.05,1.4-.09-.59-.38-1.08-1.05-1.4Z"/><path class="cls-1" d="M256.08,356.41c.29.55.38,1.2.86,1.66.25-.24-.13-1.33-.86-1.66Z"/><path class="cls-1" d="M256.25,358.21c.34.7.3,1.06.36,1.54.57.2.74.47,1.03-.13-.65.17-.79-1.03-1.39-1.42Z"/><path class="cls-1" d="M261.62,356.78c-.49.02.23.9.57,1.11.1-.33-.07-.54-.09-.81-.27-.2-.44.05-.48-.29Z"/><path class="cls-1" d="M261.72,364.78c-.13-.12-.16-.02-.17.08-.01.12-.02.24-.04.35.61.18,1,1.78,1.98,2.35,0-.22.07-.3.19-.26-.57-.54-.87-1.2-1.53-1.69.07-.9.48.17.85-.05.12-.45-.88-.39-.77-.85-.21-.17-.3.91-.51.06Z"/><path class="cls-1" d="M263.08,359.19c.42.89.95,1.73,1.8,2.43-.45-.88-1.1-1.66-1.8-2.43Z"/><path class="cls-1" d="M263.93,368.21c.27.43-.33.71.04,1.35.22-.41.5-.39.99.23-.09-.65-.59-1.1-1.03-1.58Z"/><path class="cls-1" d="M265.05,368.9c.14.74.8,1.23,1.36,1.78-.36-1.02-.74-1.04-1.36-1.78Z"/><path class="cls-1" d="M268.35,375.08c.24.1.11-.5.37-.34-.45-.94-1.82-1.45-1.79-2.61-.96.48,1.27,1.9,1.41,2.95Z"/><path class="cls-1" d="M267.15,371.7c.24,1.09,1.31,1.79,2.12,2.62-.2-1.11-1.36-1.77-2.12-2.62Z"/><path class="cls-1" d="M269.71,373.26c-.51.14.57.98.89,1.3,0-.57-.82-.76-.89-1.3Z"/><path class="cls-1" d="M269.46,374.06c.29.84.42,1.75,1.48,2.23-.82-.59-.64-1.65-1.48-2.23Z"/><path class="cls-1" d="M270.92,378.36c-.01-1.01.88-.22.98.41-.15.53-.63-.11-.98-.41-.23.56.57.65.4,1.19.92-.12,2.75,1.3,3.53,1.98.6-.34-1.47-1.64-1.88-1.53.47-.34-.44-1.09.26-.97-1.09-.78-2.22-1.32-3.83-2.35.07.77.75,1.25,1.53,1.7Z"/><path class="cls-1" d="M273.82,381.65c-.22-.08-.17.37-.23.62.26.33.79.55.92.95.17-.02.21-.31.51-.07-.06-.31-.2-.59-.25-.91-.43-.27-.82.29-.96-.59Z"/><path class="cls-1" d="M273.97,383.63c.26.4,1,1.26.98.41-.48-.43-.6-.18-.98-.41Z"/><path class="cls-1" d="M275.46,383.98c-.55-.06.29.64.08.99.4-.03.33-.2.82.31.03-.58-.68-.83-.89-1.3Z"/><path class="cls-1" d="M36.1.99c.1-.3.63.24.55-.42-.29-.15-.32-.43-.62-.57.53,1.15-1.81.27-.08.9.55,1.23,1.33,2.36,1.51,3.76.66.36.62.61.41,1.01.18.06.14-.29.35-.16.45.44-.25.32-.08.89.48-.08.58.23,1.63.62-.1-.58-.77-.9-1.23-1.32.28-.64-.27-.91-.56-1.28.33-1.28-.83-2.44-.73-3.09-.7-.44-.29,1.01-.12,1.25-.7-.37-.3-1.23-1.03-1.58Z"/><path class="cls-1" d="M39.06,14.52c.16.84.63,1.54,1.14,2.21-.09-.59.27-.33.24-.8-.87.09-.77-.92-1.39-1.42Z"/><path class="cls-1" d="M40.76,18.02c.21.4.49.45.51-.06.18.14.1.41.11.64.48.43.6.17.98.41.42.83.69,1.74,1.46,2.41-.37,1.43.95,2.08,1.22,3.21-.74.27-1.06-1.43-1.74-1.26,1.08,1.41.93,2.62,2.5,3.99-.17.6-.36,1.02.54,1.47-.19.55-.73.57-1.18.03-.13.34.28.44.27.73.15-.41.91.34.88-.4.04,1.18,1.2,1.84,1.59,2.86-1.03-1.09-1.83-1.72-2.01-1.99-.43.71,1.32,1.9,1.94,2.7-.42.28.2,1.17.52,1.64.18.06.14-.29.35-.16.13.12.15.28.3.38-.12.12-.38-.04-.37.34.58,1.16,1.54,2.14,2.23,3.26-.04.13-.17.08-.19.26-.82-1.15-1.34-1.4-2.14-2.44.1,1.15.96,1.96,1.24,3.03.49.18-.12-.47.07-.71.34.13.41.38.62.57.07.76-.61.51-.28,1.16.28.2.36-.01.65.21.01-.18-.18-.26-.3-.37.04-.41.77-.67.07-.72.05-1.04.77-.16.97.41-.63-.57.1.94-.56.6.03.44.85.52.92.95-.12.56-.87-.32-1.12-.69-.41-.24-.29.56-.7.32.04.61.71.93.7,1.56-.4.16-.56-.43-1.14-.51-.24.74.7.93.52,1.64.45.1-.17-.7.1-1.07.2.42.48.8.55,1.28.04-.79.41-.55.9-.58.13.11.14.28.3.37.14.7-.53-.18-.39.52.89.34,2.14,3.77,1.33,3.84.51.22.59.77.96.59.11.85-.4.49-.44,1.06-.27-.73-.99-1.26-1.16-2.03-.17.6.62,2.23,1.24,3.03-.04.35-.46-.04-.39.52.58.46,1.19.93,1.16,2.04.49-.13.74.48,1.03-.13-.17.59.67.84.68,1.74.43-.7.85,1.01,1.28.78.26,1.13-.83-.34-.72.5.58.25.81.66.91,1.12-.18.15-.46.1-.69.15-.97-1.32-1.35-2.85-2.36-3.71-.17.48.53.56.24,1.09,1.94,1.34,1.3,3.85,3.05,5.27.02,2.16,2.63,4.94,2.12,6.21.22.59.5,1.14.68,1.74.82-.02.83,1.16,1.35,1.77-.12.12-.39-.04-.37.34.49-.16,1.01.82.59.93,1.32,1.28,1.34,3.15,2.45,4.52.02-.55.58.14.82.31-.08.35-.71-.38-.83-.13.24,1.49,1.47,2.52,2.18,3.79-.68.28.09,1.85.67,1.92-.18.42.18.6.08.99,1.33.24,1.43,3.72,3.09,4.92-.34,1.68,2.42,3.17,1.94,4.59-.11-.46-.47-.81-.73-1.2-.32.54,1.08,1.6,1.43,2.77.14.48.43,2.3.98,2.11.35.18.02.68.08.99.85.81,1.04,1.92,1.94,2.7.26,1.3,1.63,3.7,2.52,5.52,22.15,47.58,48.2,93.36,74.33,139.12,0,.5-.38.26-.69.14-1.28-3.75-4.25-6.72-5.61-10.44-.49-.08-.55-.28-.94-.77.09-.22.2.2.48.3-.08-.65-1.04-.9-.86-1.66-.45-.31-.42.31-.85.05.05-1.9-1.49-4.1-3-5.81-.7-1.62-1.27-3.3-2.61-4.62,0-.22.06-.3.19-.26-1.82-2.18-3.03-5.91-4.57-7.15.03-.5.3-.2.07-.71-.19-.09-.17.24-.21.44-1.11-3.38-3.54-5.3-4.58-8.85-.73,0-1.04-1.83-1.45-2.59-.69-1.27-1.75-1.88-1.61-2.68-.97-.92-1.59-2.01-1.72-3.32-.5-.54-.18.5-.67-.04-.27-.03-.18-1,.07-.71-.86-.52-.83-1.45-1.5-2.05-.03-.34.16-.26.35-.16-.98-.75-1.18-1.85-1.94-2.7.6-.42.03-.11-.08-.99-.23.1-.61-.13-.8-.49.14-.08.21-.3.23-.62-1.01-.33-.83-2.11-2.24-3.08.02-.31.16-.39.37-.34-1.07-1.51-2.9-5.37-3.53-5.57-.54-.78-.39-1.87-1.46-2.41,0-.96-.49-2.45-1.11-2.57-2.46-5.32-5.47-9.8-8.03-15.32-.25-.21-.29,0-.5-.11.03-.55-.14-.65-.2-1.45-2.09-2.59-3.2-7.09-5.82-10,0-.33.23-.26.23-.62-.77-1.24-1.7-2.42-2.18-3.79-.22.18-.81.86-1.67-.26.16-.54.53-.32.28-1.15.17-.33,1.01.43.77.85.69.3.12-1.22-.25-.91-.25-2.05-2.14-3.35-2.37-5.42-.81-.1-1.23-1.36-1.13-2.39-.27-.23-.31-.04-.35.16-.53-1.7-1.58-3.15-2.08-4.86-.22-.07-.28.16-.51.06-.88-2.39-3.13-5.18-3.21-7.26-.15-.09-.14.14-.19.26-1.14-2.55-2.75-4.9-3.51-7.63-1.32-1.57-2.48-4.67-3.58-6.92-.48-.43-.35.3-.83-.13-.14-.17-.27-.33-.29-.55,1.24.07-.44-1.92-.58-2.81-.61-.03.24.67.07.99-.24.42-.6-.5-.78-.67.65-1.46-1.02-2.98-1.26-4.56-.48-.43-.35.3-.83-.13-.17-.15-.07-.42-.29-.55.07-.21.41.09.66.21.02-.52-.21-.93-.73-1.2-.19.06-.11.63-.53.24-.03.36.41.5.25.91-.6-.29-.35-.98-1.07-1.22.28-.7-.21-1.05-.36-1.55.37-.32.38.95.91,1.12.12-1.17.42.27.8.49-.06-1.63-.72-1.17-.93-2.65-.3-.15-.15.54-.39.52-.15-.1-.1-.29-.13-.46-.34-.1-.36.07-.21.44-.86-.46-1.03-1.24-1.87-1.71-.04-.51-.15-.76.24-.8-.32-.6-1.36-.86-1.37-1.6,0-.4.58.27.81.31,0-.57-.64-.74-.8-.49-.49-.29-.07-1-.56-1.29.09-.24.52.15.39-.52-1-.31-2.26-2.35-1.61-2.68-.37-.57-.36-1.32-1.2-1.68.31-1.09-1.09-1.81-.61-2.46-1.43-.23-.77-2.82-2.2-3.61-.36-1.26-1.24-2.28-1.52-3.58.05-.5.39.69.35-.16-1.79-1.47-1.6-3.83-3.04-5.45-.05.31.16.5.09.81-.06.17-.33-.07-.35.16-.35-.87-.35-1.89-.76-2.73-.3-.04-.05.31-.05.54-.19.4-.25-.66-.78-.67.21-.15.23-.33.07-.71-1.37-.25-.8-2.36-2.07-3.16-.02-.61.21-.71.7-.33.13-.51-.39-.73-.4-1.19-.22-.08-.17.37-.22.62-.57-.2-.66-.61-.93-.95.07-.29.31-.24.67.03-.84-.81-1.04-1.92-1.59-2.86.09-.24.52.16.39-.52-1.2-.12-2.1-3.36-3-4.11.27-.52-.42-1.56.42-.88-.21-.64-.48-.58-.8-.49-.36-.55.46-1.12-.35-1.72-.16.42.29.56.25.91-.18-.14-.29-.14-.34-.01-.68-1.4-.89-3.01-2.32-4.07.51-.19.39-.28.59-.96-.48-.3-.46.38-.58.78-1.1-.41-.33-1.67-1.32-2.13-.12-1,.83.05.9-.58-.58-.36-.76.07-1.18.03-.59-.38.06-.7-.25-.91.07-.21.41.1.66.21-.13-.54-.78-1.18-.94-.77.09-1.25-.44-.98-.15-1.98-.82-.74-.73-.89-1-1.94-.3-.01-.27.6-.85.05l-.08.9c.25.51.59.03.43.83.27.23.32.05.35-.16.42.87,2,3.44.87,3.37-.06.37.56.43.78.67-.11.64-.6.4-1.01-.05.04.34.82,1.73.92.95.45.54.37,1.31,1.19,1.68-.07.35-.71-.38-.83-.13-.11.65,1.31,1.74.35,1.72-.02.45.53.36.5.12.28.5.52,1.02.52,1.64.22.06.28-.16.51-.06.32.25.27.67.59.93-.13.09-.32.09-.51.06.98,1.03,1.57,2.25,2.04,3.52-.08.44-.25-.42-.64-.39-.04.53.57.76.38,1.37-.48-.46-.79-1.01-.68-1.74-.96-.07-.87-1.96-1.78-2.6.72,1.94,1.77,3.47,2.4,5.06.49.18-.12-.48.07-.71.95.66-.29,1.26.67,1.92-.06-.31-.2-.6-.25-.91.66.16.27.79.93.94.04.43-.26.2-.51.06.09.25.35.41.27.73.72-.05,1.61,2.5,2.02,3.69-.29.44-.13-.71-.6-.75,1.12,1.82,2.13,3.7,2.84,5.71-.07.21-.41-.1-.65-.21-.13.8.7.95.94.77.53.78-.52.24-.28,1.15.6.67.13-.74.55-.42.57,1.17,1.7,2.07,1.7,3.5.84.13.82.78,1.39,1.42.09.58-.27.32-.24.79.83.7,1.19,1.62,1.62,2.51-.22.36-.6-.62-.77-.85-.06.75.73,1.67,1.48,2.23.07.63-.47.08-.4.7-.49-.25-.57-.95-.94-.77.87,1.76,1.71,2.8,2.99,4.11.14.9-.78-.25-.72.5.81,1.45,1.69,2.88,1.94,4.59.95.46.74,1.2.85,1.66.32.19.25-.36.67.03-.03,1.35,2.22,3.4,1.49,3.94.99,1.67,1.72,4.33,2.88,5.36-.04,1.1.95,1.73.74,2.91.81.37.68,1.17,1.55,1.52.08.59-.27.32-.24.8,1.66,3.23,3.55,6.36,4.65,9.84.27-.02.66.22.37-.34,1.07,2.82,2.21,5.6,3.97,8.11.56.54.24,1.49.65,2.1.18.06.14-.29.35-.16.25.91.57,2.06,1.57,3.04-.03.36-.07.72-.1,1.07,1.93,2.59,3.06,5.56,4.28,8.48.13.04.18-.08.34.02,2.15,5.06,5.09,9.76,7.41,14.75.94.48,2.19,4.07,3.31,6.19.61,1.15,1.41,1.88,1.41,2.94l.64.39c-.35.87,1.17,1.68,1.08,2.93,1.83,2.02,2.84,5.73,4.8,8.24-.02.24-.04.48-.06.72,2.48,3.25,3.59,7.14,6.12,10.37.27,1.81,1.97,2.98,2.26,4.78,1,.68.86,1.89,1.78,2.6.99,2.74,2.56,5.22,4.18,7.67,2.84,5.77,6.55,11.15,9.4,16.91l.64.39c.22.2-.02.32-.19.26,1.91,2.87,3.04,5.09,5,7.98-.02.24-.04.48-.07.71.36.55.75-.09.92.95-.09.22-.2-.19-.48-.29.09.43.5.98.76.85,12.13,22.26,25.62,42.91,38.37,64.73.16.1.32.2.48.29,1.39,3.13,3.93,5.73,5.07,8.97.4.48,1.23.64.75,1.02.48.29,1.34,1.44,1.46,2.41.21.13.43.26.64.39.54,1.06.99,2.17,1.91,3.06,2.35,5.25,6.3,9.77,8.2,15.24.21.13.42.26.64.39.04,1.05.98,2.46,1.61,2.69-.01.33-.23.26-.23.62.85.03.7.7.73,1.2,1.26,1.03,2,2.7,2.96,4.46-.02.31-.16.39-.37.34.14.46.87.16.91,1.12.16.09.14-.14.19-.26.38.34.28.9.91,1.12.03.34-.16.26-.35.16.49.36,1.24,1.13,1.67,1.97-.24.6-.48-.34-.96-.59,1.32,1.45,2.42,3,3.63,4.49-.03.3-.06.6-.08.9-.47.06.42.28.21-.44.85.54,1.12,1.28,1.99,2.17-.27.38.4,1.28-.24.8.12.53.76.2.72,1.38.7.46.09-.48.07-.71.98.75,1.07,1.9,2.12,2.62-.05.19-.31-.03-.49-.11.04.32.49.46.25.91.35-.49.45.39,1.12.68.64,2.71,3.9,4.45,4.07,7.03,1.02.05,1.68,1.59,2.31,2.37-.57.25-.79-1.11-1.39-1.42-.05.31.16.5.09.81-.66-.67-1.6-1.21-2.19-1.91.94-.39-1.11-2.05-1.46-2.41.43,1.81,2.15,4.24,3.73,5.31-.07.21-.41-.1-.66-.21.57.79,1.54,2.55,2.33,2.18.45.44-.15.52-.08.9,1.41,1.28,1.95,2.27,3.54,3.68,1.14,2.1,2.31,4.19,4.35,5.88.55,1.29,2.04,3.05,3.04,3.57,1.11,2.84,5.8,6.28,6.46,10.39.62-1.42,1.73,1.72,2.61,1.03.32.77,1.75,1.02,1.5,2.05,2.57,2.42,4.22,5.25,4.95,8.51.48.23.98.49,1.17.15.35.41.46.93.36,1.54.63.23.66.72.91,1.12.57-.06.72.36,1.31.43.09-.38-.44-.48-.43-.83,1.59,1.5,3.22,4.46,3.56,7.1.78-.06,1.35.65,1.71,1.61,2.22,1.04,4.13,2.91,5.8,4.88-.03.36-.07.72-.1,1.07.43-.52,1.08,1,1.72,1.43-.09.12-.17.24-.35.16,1.32,1.84,2.47,3.62,4.11,4.79,1.32,1.97,3.13,4.6,5.04,5.74.68,1.45,3.13,3.51,4.15,4.43,1.72,1.55,3.18,2.98,4.87,3.93-.28-.53.01-.68.1-1.07.47.24.46.71.93.95-.2-.76-.68-.88-.54-1.47-.96-.36-.76-1.96-1.52-1.87-.35-.24,0-.8-.06-1.17-.61-.81-1.14-1.65-1.62-2.51.86.58,1.08.93,2.38,1.65-2.01-3.13-4.59-7.48-7.79-10.64-.3-.32-.38-.74-.4-1.19-.16.04-.27.17-.37.34-.22-.41-.59-.76-.91-1.12.46-1-1.67-1.92-2.65-2.38.08-.55.68-.1,1.17.15-.31-.33-.39-1.04-.06-1.17.74.49.49.78,1.26.96.09-.44-.91-.38-.59-.93-.44-.43-.44,0-.82-.31-.14-.17-.27-.33-.29-.56.29-.14.89.31,1.17.15.13.11.14.28.3.37-.7-.05.34.91.72,1.38,0,.33-.23.26-.22.62.92,1.07,1.93.84,2.7,1.84-.26.27-1.12-.62-1.61-.8.25.5,1,1.45,1.26.96.42,1.46,1.89,2.44,3.05,3.57-.17-.95-1.31-1.45-1.99-2.17,1.1.07,2.25,1.59,2.28,2.72,1.04.84,2.02,1.7,2.26,2.9,2.96,2.69,4.37,6.1,7.11,8.89.03-.93-.67-1.52-.44-2.54-.59-.7-.99-1.49-.95-2.48-.25-.21-.29,0-.5-.11.28-.87-.61-1.21-.66-1.92.06-.38.44-.14.83.13-.04-.9-.86-1.43-1.14-2.21-.09-.66.55.08.55-.42-.32-1.2-1.29-1.45-2.12-2.62.29-.59,1.42.64,1.93,1-.11-.24-.13-.51-.09-.82-.15-.09-.14.14-.19.26-.52-.44-.32-.94-.93-.95.01-.33.23-.26.23-.62-.8-.78-1.2-1.73-1.61-2.69-.41-.23-.64-.12-.7.32-.38-.17-.61-.4-.78-.67.2-.46.49-.74.77-1.04.7,1.05,2.27,2.36,3.16,2.32,1.12,1.6,2.3,3.17,2.91,5,.46-.78.92.6,1.23,1.32-.26.38-.36-.73-.77-.85,0,.91,1.17,1.29,1.67,1.97.05.64-.6-.11-.23.62.68-.13,1.72,1.74,2.1,2.8.99.54,1.25,1.62,2.12,2.62.64-.19-.41-1.05-.54-1.46.86.77,2.77,2.75,3.1,4.74,1.34.78,2.78,5.09,4.47,4.63.34,1.11,1.32,1.1,1.5,2.05-.29.17-.5-.44-.83-.13,1.79,1.89,3.86,3.59,5.11,3.13-.01-.65-.24-1.71.33-1.69-.24-1.38-1.37-3.17-.46-4.07-.78-.3-1.13-1.41-1.74-1.26,0,.23.28.33.46.47-.19.44-.26.05-.66-.21.15-.52.04-.93-.22-1.27,0-.5.28-.45.69-.15-.13-.38-.39-.67-.62-.57.16-1.17-1.45-2.82-2.5-3.99-.03-1.92-2.02-2.95-3.49-4.22.01-.12.02-.24.03-.36,1.27.17,2.14,1.68,3.18,2.14.1-.39-.26-.57-.08-.99-2.24-1.86-2.68-3.48-4.56-5.44.04-.13.18-.08.19-.26.56.78,1.66,1.81,2.35,2.01.07-.49-.44-.71-.4-1.19-.28.35-.56.02-.62-.57-.17.24-.4.34-.71.33-.23-.9-1.52-2.53-2.03-1.81-.46-.2.46-.42-.09-.81.13-.17.47.45.67.03-.24-.58-1.17-.73-1.31-.43-.32-.31.29-.53.26-.98-.64-.61-.66,0-1.15-.33-.39-.26.02-.61.21-.44-.14-.66-.62-.25-.82-.31-.06-.19-.14-.86.1-1.07.5.17.57.54.94.77-.13-.97-.95-1.02-1.28-.78-.61-.93-1.12-1.79-2.17-2.09-.14-.83.51-.15.56-.6.44.49.8,1.01,1.21,1.5.07-.7.43-.86,1.06-.48,0-.44-.39-.67-.62-.57.38-.28-.32-.67.1-1.07-.88-.52-1.24-1.23-1.82-2.25.15-.32.84.51.59.93.13.12.16.02.18-.08.1.06.21.13.32.19.03-.7-.59-1.1-1.03-1.58.21-.44.71-.31.92-.76-.52-.11-.36-.21-.96-.59-.06-.62.22-.55.26-.98-.33-.28-.43-.13-.65-.21-.03-.47.33-.21.24-.8-.65-.73-1.03-1.58-1.46-2.41.19-.56.39.22.97.41.02-.52-.74-.69-.56-1.29-.14.07-.45-.16-.51.06-.74-2.17-2.67-3.8-3.5-5.93-.19-.09-.17.24-.21.44-.4-.22-.77-.44-.94-.77,1.09-1.21-1.81-2.51-2.18-3.79,1.43-.27,1.88,1.38,3,2.22-.04-.73-1.04-1.12-.52-1.64l-.96-.59c-.03-.41.16-.41.23-.62.18.38.78.56.75,1.03.28-.39.4.24.83.13.35-.96-1.57-.88-1.18-1.86-.81-.38-1.64-.79-2.43-1.11-.05-.67.33-.49.71-.32.2-.67-.37-.97-.54-1.47-.18.21-.48.19-.99-.23.04.32.49.46.25.91-.46-.36-.7-.82-.72-1.38l-1.44-.88c.4-.47.55.06.08-.89-.11-.77.63.09.56-.6-.95.22-1.1-.67-2.25-1.19-.3-.89-.73-1.72-.93-2.65-1.16-.22-1.75-.95-2.72-1.66-.09-.74.71.24.85-.05-.74-1.22-2.59-1.89-3.52-2.15.49,1.39,1.85,1.2,2.52,1.92-.02.31-.16.39-.37.34.03.44.86.71.82.31-.06,1.5,3.21,2.69,3.1,4.74-1.53-.44-2.71-2.52-3.35-3.94-1.67-.27-2.62-2.26-3.68-3.96.8.23,1.33.31,2.02.1-.57-.2-.59-.64-1.1-.87.28-1.7-1.42-1.44-1.24-3.03-1.11-1.08-.76-.72-1.69-1.79.05.45-.33.07-.37.34-.33-.31-.42-.73-.93-.95,0-.79.61-.12.81.31.33-.33-1.02-1.65-1.39-1.42-.26-.57-.91-.95-.68-1.74-.37-.8-1.7-1.16-1.83-2.07.23-.75,1.15-.16,1.86,0-.6-.96-1.54-1.03-2.14-2.44.08-.66.29-.43-.08-.99-.57-.3.34.91-.23.62.19.43.35.86.73,1.2-.34.42-.36.28.08.99-.04.19-.3-.03-.5-.12-.35-.3.09-.95-.22-1.27-.14.07-.45-.16-.51.06-.39-.4-.45-.94-.72-1.38.12-.32.28-.23.49.12.23.22-.08.19-.05.53.3-.06.66.02.72-.5-2.38-1.19-3.33-3.04-4.98-4.56,0-.26.02-.52.21-.44-.36-.01-1.61-1.19-2.17-2.08.38-.35,1.41,1.03,1.61.8-.18.57.22.82.16.1-1.25-1.34-2.21-2.63-2.85-3.83.34-.75,1.16,1.25,1.77.9-.31-.52-.22-.79-.76-.85-.52-2.04-3.61-4.59-4.81-6.35.02-.52,1.02.85.85-.05-.63,0-1.14-.62-1.58-1.16.13.45.2.93.56,1.29-.04.12-.18.08-.19.26-.76-.68-.56-1.8-1.64-2.33.01-.33.23-.26.23-.62-.76-.46-.81-1.22-1.36-1.78.02-.31.16-.39.37-.34-.03-.38-.61-.52-.41-1.01-.27-.23-.32-.05-.35.16-1.29-2.58-2.37-4.2-3.95-6.58.07-.29.31-.24.67.03-.18-.43-.6-.75-.73-1.21-.58-.55-.31.52-.85.05.02-.81-.47-1.38-1.18-1.85-.03-.47.33-.21.24-.8-.33-.15-.36.29-.69.14.09-1.01-.39-.61-1.04-1.58-.03-.47.33-.21.24-.8-.2-.04-.35.03-.37.34-.72-.74-1.15-2.9-.55-3.17-1.02-1.13.04,1.3-.92.76-.24-.48.07-.45-.06-1.17-.68-.47-.76-1.4-1.56-1.34-.33-.6-.76-1.25-.35-1.73-.27-.16-.53-.33-.8-.49-.2.73.46,0,.27.73-.84-.05-1.47-2.3-2.56-3.27.45.02.68-.25,1.15.33-.03-1.19-1.26-.78-1.87-1.71.22-.9-.62-1.31-1.18-1.85.08-1-.57-1.68-1.13-2.39.27-.38.52.65.94.76.12-.41.72.13.87-.22-.92-.49-1.59-1.54-2.52-1.92.05-.3-.28-.56-.4-1.19.35-.55.98,1.6.99.23.57.25.33.87.91,1.12.19-.61-1.13-1.41-.52-1.64-.55-.29-.68-.85-1.39-1.42.72-.32-.41-.8-.35-1.72-.96-.59-1.25-1.48-1.99-2.17-.36.16-.25.99.22,1.27-.64.23-.94-1.16-1.19-1.68.2-.26.67-.03.83.13.23-.24.03-.64.42-.88-.8.35-.64-.7-1.58-1.16-.3.53.41.61.24,1.09-.29-.44-.85-.75-.72-1.38.1-.22.2.2.48.29.06-.28-.23-.63.05-.54,0-.64-.66.1-.45-.65-.22.29-.36.7-.88.4-.35-.66.27-.19.24-.8-.4-.28-.53-.03-.69.15-.15-.22-.13-.51-.45-.65,0-.91.97.05,1.08-.67-.31-.04-.67-.16-.85.05-.64-.28-.1-1.1-.89-1.3-.06-.62.22-.55.26-.97-.68-.43-.77-1.13-1.02-1.76-.78-.03-1.16-1.14-1.51-1.87-.02-.47.72.55.53-.24-.86-.34-.96-1.17-1.5-2.05-.5-.47-.27.46-.69.15-.52-.75.44-.4.28-1.16-.22-.35-.38-.45-.64-.39.25-1.82-1.98-2.52-2.15-4.15-.83-.18-.9-.53-1.74-1.25-.15-.24.12-.59-.24-1.09.36-.37.67.7,1.1.87-.18-.99-.87-1.44-1.51-1.87-.21-.76.16-.55.28-1.15-.41-.49-.33-.93-.92-.95.02-.24.04-.48.07-.71-.34.47-1.31-.89-1.02-1.76-.86-.11-.8-.64-1.05-1.4-.61-.41-.07.11-.21.44-.4-.22-.35-.64-.59-.93.13-.74.33-.37.71-.32-.31-.6-.53-1.24-.31-2.08.19.08.28.21.3.38.28-.25-.57-1.45-.82-2.02.52,1.57-.19,1.6.39,3.07-1.43-.92-.27-1.74-.94-2.65-.36.22-.2,1.45-.65,1.5.13-.54-.43-1.45-.15-1.98-.57-.2-.95-.02-1.51-.17.7-.15.3-.83.31-1.51.09-.39.77.36.71-.32-.41-.1-.48-.23-.85.05-.21-.35-.16-1.03-.46-.47-.21-.41-.18-.94-.2-1.45.26-.15.69,1.24,1.12.69-.7-.58-3.21-3.51-1.88-3.42-.19-.43-.83-.65-.73-1.2-1.13-.17-1.26-1.96-2.63-2.56.44-.53-.38-1.19.28-1.15-.11-.54-.64-.13-1.12-.68-.51-1.08-.82-2.25-1.91-3.06.42-.36-.2-1.19-.57-1.11.25-.63-.27-.9-.2-1.45-.22.27-.11.48-.42.88-.34-.51-.31-1.29-.19-1.63-.3-.77-.71-.12-.71-1.38-.17.01-.2.31-.51.06.43.55.61,1.2.67,1.92-.52-1.01-1-2.05-1.57-3.04.04-.13.18-.08.19-.26.41.39.51,1.43,1.07,1.22-.11-.86-1.14-1.14-1.13-2.39-.23-.13-.46-.25-.46-.47-.21-.04-.35.02-.37.34-.62-.46-.61-1.21-1.19-1.68-.09-.59.27-.33.24-.8-.5-.42-.28.51-.65-.21-.05-.63.6.11.23-.61-.34-.32-.26.2-.51.06-.09-2.66-2.5-4.72-2.92-6.7.05-.32.55.22.67.03-.24-.86-1.45-1.27-1.13-2.39-.2-.04-.35.03-.37.34-.46-.13-.39-.51-.78-.67-.04-.43.26-.2.51-.06.02-.52-.48-.81-.56-1.29-.19-.09-.17.24-.21.44-.45-.14-.29-.55-.61-.75.12-.12.38.04.37-.34-.21-.13-.43-.26-.64-.39-.03-.47.33-.21.24-.8-.84-1.27-1.68-2.54-2.34-3.89-.02.18-.03.35-.05.53-.18-.37-.78-.56-.75-1.02-.04-.43.26-.2.51-.07-.22-.91-1.43-2.14-1.8-2.43.25-.39.16-.76-.39-1.19.03.87-.31.25-.67-.04.84,1.18.62,1.96,1.56,3.22.24.07,0-.17.03-.36.54.1.07.65.61.75-.2.65-.08.6-.13,1.43-.48-1.79-2.37-3.61-2.4-5.06-.13-.05-.18.08-.34-.02-.46-.44.4-.04.23-.61-1.16-.5-1.16-1.52-1.46-2.41-.6,0-.87-.59-1.07-1.22.45.03,1.05.35,1.2-.21.32.35.55,1.12.93.95-.34-.5-.27-.56-.08-.99-.51-.03-.62-.44-.97-.41-.38-.4-.28-1.01-.89-1.3.34-.86-.65-1.92-1.43-2.76.51-.29.21-.76-.56-1.29.09-.18.24-.24.51-.06-.23-1.03-1.31-1.68-1.61-2.69-.3-.16-.17.52-.53.24-.39-.16.16-.76-.43-.83.02-.31.16-.39.37-.34-.15-.48-.47.26-.62-.57,0-.43.1-.65.39-.52-.62-.57-.81-2.06-1.5-2.05-.03-.47.33-.21.24-.8-.54.26-.46-.68-.44-.65-.58-.94-1.44-.91-1.48-2.23-.61.07-.96-1.2-1.35-1.78.12-.12.38.04.37-.34-.79-.15-.6-1.09-1.55-1.52-.48-.04-.09.94.24,1.09.06.29-.73-.44-.78-.67-.55-.06.23.67.25.91-.07.21-.41-.09-.66-.21-.16-.2.13-1.05-.71-1.38.02-.46.05-.89.4-.7.05-.65-.68-.94-.52-1.64-.3-.01-.52.28-.82-.31.81,0,1.81.81,2.72,1.66-.18-.49-.22-1.04-.36-1.54-.28-.12-.66,0-.62-.57-.22-.07-.28.16-.51.06-.56-.5.02-.45-.06-1.17-.67.47-2.05-1.92-1.45-2.59-.43.21-.3-.59-.94-.77-.08.6.61.86.54,1.46-.33.14-.64-1.18-.86-1.66-.2.04-.45-.03-.82-.31-.37-.23.1-.45.35-.16-.12-.55-.72-.29-.69.14.3.26.24.69.76.85-.11.22-.28.31-.39.52-.59-.53-.39-1.42-1-1.94.26-.31,1.48.48,1.06-.49-.38.4-.34-.08-.8-.49.47-.33.48.36.24-.8-.37.11-.51.11-.97-.41.54-.55-.77-.92-.51-1.82.97,1.62,2.19,2.65,2.77,4.72.23-.98.93,1.14,1.47.52.05-.31-.16-.5-.09-.81-.71.02-.9-1.34-.68-1.74-.29.64-.79-.42-1.04.31-.16-.38-.65-.62-.57-1.11.14-.42.55,1.13.51-.06.54.1.07.65.6.75.01-.33.23-.26.23-.62-1-.52-.67-.97-.38-1.37-.74.34-1.18-1.65-1.8-2.43-.48-.13-.21.16-.23.62-1.07-.63-1.32-2.42-2.12-2.62-.09-.66.45-.12.55-.42.4.73.91,1.41,1.14,2.21.36.14.6.03.71-.32-.28-.1-.29-.32-.28-.55-.15,0-.3-.02-.36.16.12-1.03-1.49-2.84-2.25-3.08,1.06-.09-.1-1.21.35-1.87-.27-.16-.4-.39-.45-.65-.61-.03.24.67.08.99-.24.41-.9-.27-1.79-.72.15-.87.8.34,1.17.15-.03-.86-.33-.52-.91-1.12-.08.33-.36.28-.55.42-.3-.26-.06-.77-.59-.93-.04.76,1.01,1.02.67,1.92.73.52,1.4,1.07,1.69,1.79-.09.35-.47-.56-.61-.75-.45-.11.06.87.29.55-1.61,1.03-2.34-3.81-4.03-5.69-.01.26-.02.52-.21.44-.09.44.61.52.41,1.01-.21.2-1.1-.74-.89-1.3-.26.49-1.43-.42-1.25-1.14,0-.21.81.64.75,1.02.42-.44.66.05,1.19-.03-.11-.7.11-.58-.04-1.35.71.89.66,1.64,1.96,2.53.11-.79.44-.15.28-1.15-.28.16-.3.82-1.03.13-.49-.92-.78-1.92-1.43-2.77,0,.43-.1.65-.39.52.13.45.34.87.56,1.28-.26.09-.7-.36-.96-.59-.03-.34.16-.26.35-.16-.18-.91-.61.04-.93-.94.23-.18.67.03.87-.22-1.17-.65-1.49-2.84-2.71-3.55.1-.3.49-.04.4-.7-.47-.41-.49-1.03-1.23-1.32.01.45-.09.67-.24.8-.54-.55-.72-1.27-1.35-1.78.18-.48,1.25-.03,1.1.86.1-.44.63-.04.72-.5-.91-.27-1-1.02-2.01-1.99-.19.49.5.57.41,1.01-.44.18-.49-.78-1.08-1.04,0-.33.23-.26.23-.62-1.11.15-.82-1.63-1.66-2.15.44-.7,1.02.83,1.45.7.01-.18-.18-.26-.3-.37-.14-.7.53.18.39-.52-.52-.36-.62-1.25-.94-.77-.63-.28-.3-1-.71-1.38.17-.22.63-.13.64.39.55-.4-1.42-1.54-.65-2.1l-.96-.59c.03.42-.15.41-.23.62-.49-.43-.16-.61-.08-.99-1.14-.51-.91-1.66-1.38-3.3-.92-.57-1.14-2.72-2.18-3.79-.42.18.21.63.24,1.09-.57.02-1.18-1.4-1.5-2.05.31-.45.45.87.8.49-.03-.53-.07-.93.1-1.07-.35-.25-1.2-.6-1.77-.9-.46-.57.21-.7.12-1.25-.12-.36-1.19-1.15-.56-1.28-1.03-.84-1.45-1.96-1.91-3.06-.07-.76.79.26.72-.5-.67-.67-.4.48-1.01-.05-.58-.49.1-.89.13-1.43-.37-.28-.31-.77-.57-1.11.29,0,.46-.24.42-.87-.14.04-.47,0-.48-.3-.41-.21.19.44-.07.71-.51-.22-.41-.72-.57-1.11-.38-.18-.05.67.09.81-.18.15-.46.1-.69.15-.3-.52.02-.69-.6-.75.08-.79.39,0,.69-.15-.06-.69-.47-.41-.8-.49-.48-.58-.6-1.33-1-1.94.24-.17.74.16,1.01.05-.19-.68.21-1.59-.47-2.18.25-.8.47-1.06-.12-2.34.01.45.24.93-.1,1.07-.47-.3-.56-.77-.73-1.21-.32-.19-.25.36-.67-.03.32.51.37,1.76.86,1.66-.16.18-.29.42-.69.14-.29-.45.32-.57-.59-.93-.14-.7.53.18.39-.52-.47.36-.85-.4-.91-1.13-.51-.18-.32.38-.07.71-.29-.15-.32-.42-.62-.57.12-.26-.09-1.17.26-.98-.08-.27-1.1-.95-.41-1.01-.07-.53-1.14-.33-1.24-1.14.07-.21.42.1.66.21-.3-.72-.47-2.21-1.14-2.21-.18-.17-.53-1.22.07-.71-.7-1.18-2.08-2.49-3.32-2.41-.2-.31-.27-.67-.59-.93,0-.69.84.21.74-.68.69.49.45.6.57,1.1.63.51.99.5,1.03-.13-.16-.09-.14.14-.19.26-.38-.34-.81-.66-.73-1.21.08-.44.25.41.64.39.18-.54-.63-.63-.4-1.19-.98.16-1.17-1.65-1.25-2.85-.55-.3-1.34-.38-.9.58.33-.44.48.2.61.75-.08.22-.28-.15-.3-.37-.28.42.75,1.7.95,2.47-1.77-1.93-3.07-5.55-4.82-8.06.05-.19.31.03.5.11-.06-.43-.18-.83-.75-1.02.45-.49-.21-.6-.22-1.27,0-.5.88.72.69-.14-.83-.23-.65-.67-1.02-1.76-.66-.21-1.22-.59-1.03-1.58-.64-.28-.6-.87-1.24-1.14.45-2.04-1.83-4.24-2.55-7.04-.35.25-1.01-.23-.61-.75-.49-.46-.62-.22-.83-.13-.13-.17-.27-.33-.28-.55.3-.06.47-.35,1.01.05-.07-.96-.84.14-.75-1.03-.74.08-.64-.27-1.08-1.04.06-.38.44-.14.83.13-1.16-1.1-1.8-3.31-3.36-3.76-.54-.56-.25-.7-.4-1.19.07-.51.71.11.72-.5-.49-.39-.67-.18-.85.05-.26-.72-.45-.41-.93-.95.25-.63,1.31-.02,1.63.62-.02-.35.18-.27.18-.08.01-1.18-.13-2.76-1.84-3.78-.03-.61.8.42.71-.32-.75-.25-.9-1.88-1.43-2.77-.28-.2-.36.01-.66-.21.12-.12.38.04.37-.34-.29-.49-.21-.11-.64-.39.06-.17.33.07.35-.16.06-.77-.57-1.23-.93-.95.05-.19,0-.34-.13-.46.05-.19.31.03.5.11-.65-1.3-1.05-3.62-2.14-4.15-.17-1.48-.64-.85-.68-1.74-1.06-.38-1.17-.87-2.04-1.63-.07.43.2.71.24,1.09-.53-.27-.27-.9-.73-1.2.04-.19.31.03.49.11-.41-.89-.51-1.93-.92-2.83.05-.19.31.03.5.12-.18-.43-.27-.91-.73-1.21-1.19.01-1.29-3.38-2.63-4.45.69,1.68,1.46,3.33,2.06,5.05-.51-.45-.61-1.09-.86-1.66-.53-.02.27.77.24,1.09-.32-.2-.64-.39-.96-.59,0-.33.23-.26.23-.61-.83-1.05-1.61-.61-1.99-2.17.24-.27.84.74,1.26.96.18-.14.21-.57.55-.42-.27-.22-1.71-.4-1.87-1.71.07-.29.31-.24.67.03.01-.72-1.32-.73-1.53-1.69-.06-.69.67.17.56-.6-.13-.12-.16-.02-.17.08-.22.14-.43-.72-.82-.31-.05-.28-.42-1.26-.76-.85-.09-.35-.48-.58-.41-1.01.31-.18,1.13.63,1.33.25-.28-.29-.68-.72-1.09-1.04-.02-.47.33-.21.24-.8-.55-.77-.85-1.66-1.29-2.49.06-.38.38.48.8.49-.28-1.19-1.61-.85-1.48-2.23-.22-.24-.85-.3-.78-.67-.42-.21.19.44-.07.71-.16-.1-.32-.19-.48-.29-.09-.98-.87-1.65-.93-2.65.43-.24,1.07.87.87,1.48.41.27.75.57.93.95-.26-.44-.18-1.82-1.14-2.22-.03-.69.61-.09.58-.78-.9-.24-1.7-1.9-2.41-3.18.15-.47.33.38.64.39-.31-.59.13-.46.1-1.07-.64-.62-.79-1.46-1.5-2.05.01-1.27-.64-.95-1.99-2.17.36.58.88,1.08,1.02,1.76.27.23.32.05.35-.16.32.31.51.68.57,1.11.02.39-.46-.32-.46-.47-.18.32-.28,2.06.61,2.46-.29.69.55,2.22,1.24,3.03-.08.45-.38.38.27.73.16,1.69.77,3.18,1.78,4.49-.58.33.65,1.57-.13,1.43.3.14.52.61.91,1.13.05-.31-.16-.5-.09-.81.23.24.38.51.6.75-.09.18-.24.24-.51.07-.09.5.31.77.22,1.27.25.21.29,0,.5.12-.09.44-.14.86.41,1.01-.01.29-.14.64.09.81.02.47-.72-.55-.53.24.96.22,1.9,2.75,1.7,3.5.06.6.36.04.64.39.13.11.14.27.3.37.07.62-.33.36-.26.98,1.03.64,1.47,2.65,1.99,4.05.5.17.56.54.94.77.03-.88-.6-.4-.73-1.21.45.2.32.15.55-.42,1.03.62,1.14,1.56.82,2.02-.51-.22.02-.92-.57-1.11.31.62-.05,1.15-.58.78.46.88.66,1.87,1.09,2.75-.61-.02-.35,0-.24.8-.36-.41-.46-.93-.36-1.55-.3-.16-.16.52-.53.24.39.45.39,1.08.7,1.56.41.23.37-.4.42-.87.53.72.66,1.63,1.48,2.23.29,0,.38-.4.71-.32.56.76-.45.23-.26.97-.09.22-.2-.19-.48-.29-.18,1.09,1.15,2.74.98,4,1.14.85,1.33,2.13,1.89,3.24-.25.59-.78-.57-1.31-.43.09,1.01,1.13.76.38,1.37.42.11.72-.02.88-.4.72.87,1.12,1.88,1.41,2.94.83-.02,1.07,1.05,1.36,1.78-.05.19-.31-.03-.5-.11-.21-.19-.09-.53-.09-.81-.18-.14-.29-.13-.34-.02-.11-.06-.21-.13-.32-.2.04.61.82.88.52,1.64-.4-.21-.35-.64-.59-.93-.56.05.2.92.22,1.27-1.21-.55.42,1.13.49,2,.25-.18.84-.25,1.15.33-.64-.17-.26.57-.75.86.19.09.28.22.3.38.35-.49.78.47,1.31.43.13.41.23,1.82,1.13,2.39.02.61-.45.26-.71.32.18.88.53,1.62.47,2.18.21.13.42.26.64.39l.07-.71c-.76-.28-.45-1.05-.7-1.56.71.47.49,1.37,1.18,1.86-1.08.49.33,1.72.39,3.07-.1-.47-.57-.76-.55-1.28-.46.17.29,1.23.52,1.64.3.01.51-.14.85-.05.52.69-.26.59-.26.98.28.1.29.32.29.55.56-.24.9.42.71,1.38.36-.69.3.12,1.14.51-.08,1.02-.94-.79-.88.41.77-.07.87.54,1.45.7-.06.87-.82-.59-.99-.23.34.68.42.82,1.09,1.04-.05.8-.44-.36-.67-.03,0,1.5.93,1.53,1.78,2.61-.04.42-.32.36-.26.97.72.41.64,1.19,1.19,1.68-.14.29-.52.11-.7.32-.26-.11-.26-.34-.46-.47-.07-.55.36-.14.53-.24-.52-.79-.97-.9-1.34-1.95.17.67.17,1.41.67,1.92,0,.59-.42-.74-.5-.12-.16-.72-.58-1.33-.82-2.02-.18-.06-.14.29-.35.16-.46-.44.25-.32.08-.9-.27-.16-.4-.39-.45-.65-1.12.46-.45-1.47-1.51-1.87-.03-.61.59-.14.24-.8-.56-.23-.63.46-1.2.21-.07.49.44.71.4,1.19.19.08.17-.24.21-.44.55.32.55.89.72,1.38-.27.24-.38-.37-.81-.31-.35-.52-.49-1.14-1.03-1.58-.03-.61.59-.14.24-.8-1.74-.28-2.39-3.73-3.37-5.47.19-.2.75.33.85-.05.73,1.72,1.27,3.52,2.22,5.14.45.1,0-.77-.43-.83.08-.57-.3-1.09.4-.7-.31-.43-.63-.85-.89-1.3.17-.23.67.17.56-.6-.73-.2-.64-.42-.91-1.13-.07-.62.47-.07.4-.7-.35-1.04-1.32-2.11-1.96-2.52.15-.06.14-.43.37-.34.45.28-.43.25.29.55-.09-.99-.82-1.68-.93-2.65l-1.12-.69c.09-.39.32-.52.28-1.15-.89-.28-.39.63-.6.96-.58-.36.08-1.29-.7-1.56.02-.82.99.22.92-.76-.16-.09-.15.14-.19.26-.86-.92-1.13-2.11-1.56-3.22-.67-.38-.59.69-.28,1.16-.43-.43-1.53-.56-1.4-1.24.2-.4.4.52.66.21.25-.46-.5-.45-.25-.91-.5-.15-.43.27-.98-.41,0-.41.19-.49.53-.24-.04-.93-1.06-.35-1.07-1.22.15-.33.92.51.87-.22-.48-.43-.6-.17-.97-.41-.14-.17-.27-.33-.29-.55.27-.16.67.61.99.23-.4-.68-.04-.65-.03-1.53-.35-1.45-1.51-2.6-2.03-3.51,1.04.48-.79-2.39-1.03-3.47.5-.16.6,1.32,1.37,1.6-.15-1.33-1.57-1.88-1.41-2.95-.19-.08-.16.24-.21.44-.62-.17-.41-.72-.93-.94.33-1.44-1.2-2.43-.87-3.37-1.06-1.07-.97-2.06-2.1-2.8.23.52-.04.22-.07.71-1.36-1.26-.6-2.16.07-2.6-.53-.18-.73.27-1.2.21-.21-.65-.57-1.22-.66-1.92.13-.32.58.63.94.76-.13.24-.77-2.24-1.11-2.57-.09-.36.39-.58.35-.16.41-.22-.28-.56-.43-.83-.19-.09-.17.24-.21.44-.62-1.12-.47-3.37-1.76-4.67.03-.3.06-.6.08-.89-.32-.2-.16-.61-.61-.75.32-1.63-1.24-2.4-.98-4-1.1-1.03-1.4-2.44-1.49-3.94.67.63.89.58,1.42,1.06-.74-1.36-2.08-2.48-1.88-3.42-.73.39-1.59-.43-2.23.33-.26-.74-.39-1.53-.63-2.28-.75.43,1.03,2.66.05,3.05-.35-.18-.01-.68-.08-.99-.61.15-.62-1.11-1.39-1.42.34-.05.67-.12.6-.96-.4.26-.71-.13-1.3-.6.11-.59.14-1.59-.38-1.37-.03-.61.41-.49.1-1.07.19-.44.26-.06.66.21-.24-.63-.46-1.27-1.02-1.76.05-.61.85.23.88-.4-.26-.18-1.07-.04-.94-.76-.25.01-.63-.24-.55.42-.6-.69-.46-.6-1.12-.69-.45-.14.19-.77-.25-.91-.66-.48-.17.51-.24.8-.27-.33-.2-.82-.57-1.11.09-.39.77.36.7-.32-.47,0-.67-.9-.27-.73-1.11-.51-1.53-2.08-1.52-3.58-.23.05-.61-.19-.83-.13.13.67-.02.41-.1,1.07.33.29.33-.07.37-.34.73,1.09.8,2.48,1.17,3.74-.82-.83-.61-2.12-1.41-2.95.16.55.31,1.11.35,1.72-.49-.46-.32-1.22-1.21-1.5.09-.39.58,0,.56-.6-.29-.15-.32-.43-.62-.57-.04-.43.26-.2.51-.06.03-.35-.41-.49-.25-.91-.57.1-.74-.95-1.28-.79-.1-.89.59-.25.6-.96-.56-.43-.89-1.86-.65-2.1-.77-.71-.21-.96-.86-1.66.15-.47.32.38.64.39-.03-.96-.82-1.56-.95-2.47-.43-.17-.55-.19-1.01-.05-.15-.5-.77-1.31-1.25-1.14-.14-.7.53.18.39-.52-.11-.47-.65-.73-.56-1.29-.5-.42-.53.03-.8-.49.06-.59.92.37,1.17.15.43.2-.24.91.41,1.01.34-.32-.28-1.39-.84-1.84-.08-.59.27-.32.24-.8-.67-.55-1.76-1.81-1.48-2.23-.03-.28-.28-.19-.34-.02-.33-.48-.7-.93-.52-1.64-.5-.17-.44-.6-.94-.77.6.46.01,1.48.84,1.84-.23.61-.7.11-.45,1.23-1.01-.52-.49-1.06-.55-1.29-.71-.35-.03.7-.42.88.42.15.57.42.43.83.52.21.46.64.8.49-.04-.55-.47-.82.08-.89.32.25-.04.81.41,1.01-.21.4-.65-.16-.4.7.45-.57.3.62.57,1.11-.06.13-.65.23-.65-.21.21.38.09,1.54.65,2.1-.49.87.45,1.5-.04,2.24.53.63.86.37,1.24,1.14-.07.21-.41-.1-.65-.21-.25.86.4,1.3.49,2,.34.1.36-.07.21-.44.64.18.51.98.94.77-.06.08-.46.45-.07.72-.19.43-.26.05-.66-.21.06.88.87,1.42.61,2.45,1.06-.18.11,1.23,1.21,1.5-.62.12.09.69-.26.97-.33-.48-.7-.93-.52-1.64-.97-.11-1.05-1.69-1.09-2.75-.29.07-.58.14-1.15-.33,1.53.94.81,4.55,3.07,5.09.37.92.95,1.73,1.09,2.75.34.1.37-.07.21-.44.32.2.64.39.96.59.2.25.26.56.25.91-.5-.29-.4-.84-1.09-1.04-.02.52.22.92.2,1.45.21.13.42.26.64.39.14.22.21.47.27.73-.06.38-.44.14-.83-.13.38,1.11,1.14.15,1.39,1.42.2.04.35-.03.37-.34.3.21.52.45.61.75-1.05-.19-.15,2.06-.11,2.96-.64-.71-1.16-2.99-1.78-2.6-.44-.83-.57-1.8-1.11-2.57-.54.15.37,1.07.36,1.55-.58-.54-.38-.64-1.1-.87.59-.7-.33-.85.31-1.51-.68-.54-.84-.07-1.04.31-.43-.46.11-.73.1-1.07-.38-.23-.44-.6-.94-.77-.09-.59.27-.33.24-.8-.75-.41-.2-.35-.41-1.01-.61-.52-.72-1.27-1.35-1.77-.09-.66.45-.12.55-.42.5.61.72,2.05,1.37,1.6-.14-.39-.66-.61-.93-.95.1-.09.2-.19.21-.44-.7-.42-.79-.54-.73-1.2-.73-.64-.6.39-1.33-.25-.13-.11-.14-.28-.3-.38-.02-.61.45-.26.71-.32.23-.56-.35-.75-.22-1.27-.26-.23-.31-.04-.35.16-.64-.73-.24-1.94-1.46-2.41-.48-1.65-1.45-2.6-1.47-4.11-.68-.26-.59-.87-.89-1.3-.51.04-.5.27-1.01-.05-.05.83.07.78-.13,1.43.59.1.34-.1.99.23.43.55.43,1.29,1.2,1.68-.14.5-.95-.29-1.33-.25-.06.44.79,1.33.2,1.45.34.99,1.46,1.62,1.25,2.85-.56-.43-.68-1.06-1.21-1.5.11.4.4.73.22,1.27.45-.02.51.1.29.55,1.18.77.78,2.27,1.56,3.22.11.64-.39.1-.67-.03-.13.51.39.73.39,1.19.19-.39.51-.55.47-1.41.13-.1.32-.09.51-.07.2.31.28.67.41,1.01-.09.24-.51-.15-.38.52.33.28.43.14.65.21.17.15.08.42.29.55-.2.51-.36-.2-.67-.04-.44-.31-.12-.97-.73-1.2,1.83,4.46,4.08,8.74,5.68,13.31.87-.06,1.21,1.5.82,2.02.53.11.68-.51,1.22-.39.59.71-.15.97.52,1.64-.05.19-.31-.03-.5-.12.25.74,1.03,1.24,1.16,2.04-1.38-.38.33,1.89.2,3.33.46.47.32-.23.39-.52.54,1.13.19.68.51,1.82.23.1.11-.5.37-.34.2.25.26.56.25.91.2-.04.45.03.82.31.6.48-.24.64.57,1.11-.07.29-.31.24-.67-.03.6,1.78.2,1.64,1.52,3.58-.09.18-.24.24-.51.07,1.18,1.05,1.35,2.57,2.35,3.71-.09.12-.17.24-.35.16.24.52.79.89,1.41,1.24.05.52-.12.6-.53.24,1.07,1.56.94,3.67,2.75,4.9.07.62-.47.07-.41.7-.32-.2-.16-.61-.6-.75.81,1.23,2.18,2.61,2.62,4.44.49.03-.29-1.21.56-.6.01.9.02,1.62.47,2.18.77.15-.26-.6-.24-1.09.65.33.69.94,1.05,1.4-.29.15-.65.16-1.03.12.85,1.34,2.03,2.05,2.52,3.81-.06.17-.33-.07-.35.16-.05.3.16.5.09.81.6.35.48.08.96.59-.15.13-.26.35-.24.8.54.61.8,1.35,1.16,2.04-.06.43-.53-.29-.46-.47-.27.78.97,1.65,1.69,1.79.14.83-.43.3-.85.05.5.97,1.73,1.6,1.94,2.7.03.38-.75-.19-.46-.47-.29.34-.15.94.19,1.62-.14-.2-.55-.78-.5-.11-.24-.23-.08-.65-.6-.75-.09.61.48.92.54,1.46.14-.29.78-.12.8.49.25.07-.04-.27.05-.54.45.48.78,1.01,1.57,1.34.1.77-.63-.09-.57.6.5.27.86.98,1.28.78.5,1.23.96,2.69,1.54,3.4.21-.08.34-.33.83.13-.27.68-.95.01-.45,1.23-.55-.2-.49-.69-.75-1.03-.43.26.74,1.25.84,1.84.17-.02.2-.31.51-.06.05.53.33.77.04,1.35.48.43.5-.02.98.41.27.38-.36,1.17.7,1.56.03.47-.33.21-.24.8-.4-.22-.47-.58-.59-.93.2,2.48,2.74,5.36,3.81,8.01-.22.14-.58,0-.99-.23.15.56.7.93.7,1.56.4.27.53.03.69-.15.65,1.21.98,3.86,2.78,4.54-.19.6-.56-.33-.83-.13.44.9.57,1.08.84,1.84.22.07.28-.16.51-.06.64.83.43,2.83,1.42,2.94-.04.42-.33.36-.26.97.32.37.95.59.73,1.21,1.25.21,1.02,2.47,2.23,3.26-.23-.03-.09.68-.39.52.55.6,1.24,1.15.99,2.12.38.17.61.4.78.67-.1.09-.19.19-.21.44.35,0,.74.75.29.55.48.31.79,1.07,1,1.94.29-.35.51,0,.8.49-.04.19-.31-.03-.49-.11.22.75.76,1.36.98,2.11-.71-.34-.29-.76-.94-.77.13.45.2.93.56,1.29-.07.21-.41-.1-.66-.21-.26-.51.06-1.28-.7-1.56.43.56-.41.63.06,1.17-.31.36-.62-.15-.96-.59.08-.34.46-.1.69-.15-.04-.65-.58-.63-.94-.77-.24-.46-.63-.85-.54-1.46.45,1.06.95.5,1.23,1.32.45.11-.3-.95.53-.24.56.4-.61.14-.05.53.75.55.25,0,.39-.52.13.17.27.33.29.55.01-.75-1.43-2.31-1.7-3.5-.36.53-.37-.48-.82-.31.36.64.75,1.26,1.36,1.78-1,.88-1.81-1.56-2.51-2.1-.09-1.23.85-.46.96-1.3-.6.23-.32-.99-1.07-1.22.31.39.74,1.7.03,1.53.18-1.04-.68-.58-.84-1.84-.03-.69.61-.09.58-.78l-.8-.49c-.01.26-.02.52-.21.44-1.11-1.09-1.61-2.46-2.53-3.63-.2.61.33.88.38,1.37-.7-.64-1.65-1.92-1.11-2.57.13.4.4.73.92.94.41,0-.24-.72.23-.62-.54-.83-1.63-1.23-1.14-2.21-.53-.16-.48-.58-.59-.93-.14.08-.45-.16-.51.06-.22-1.15-1.76-2.61-1.36-3.48-.35-.58-.81-1.11-1.19-1.68.13-.09.32-.09.51-.06-.09-.61-.52-.21-.8-.49,0-.7.47-.5.88-.41-.17-.7-.77-1.39-.33-1.9-.45-.02-.52.68-1.2.21.18.99.93-.04,1.07,1.22-.25.34-.58.23-.99-.23-.72-.99-.4-2.44-1.21-3.38.28-.62.53.32.96.59.01-.58-.51-.9-.89-1.3-.1.09-.19.19-.21.44-.29-.32-.06-.6-.46-.47-.05-.95-1.38-1.31-.95-2.47-.45.1-1.11-1.04-.72-1.38-.99-.1-1.63-1.42-1.8-2.42-.25-.21-.29,0-.5-.12-.08-.86-.76-1.54-.17-1.8-.37-.23-.74-.46-1.12-.69-.19-1.08.73.01.74-.68-.68-.43-.91-1.07-1.02-1.76-.34.05-.93-.39-1.31-.43.15-.55,1.05.34,1.06-.48-.86.39-1.73-1.4-1.8-2.43-.54-.63-1.02-.29-1.24-1.14.33-.11.96.24.39-.52.19-.27.65,0,1.15.33.04-.13-.05-.21-.14-.28.01-.12.02-.24.03-.36-.46-.33-.53.1-.99-.23-.63-.59.13-.82,0-1.71-.61-.35-.37-1.08-.88-1.48-.21.78.2,1.28.68,1.74-.2.1-.24.52-.26.97-.22-.64-.58-.38-.55-1.29-.5-.54-.18.5-.67-.03.12-.8-.66-2.05-1.06-3.11-.32-.06.14.95.4,1.19-.59.51-1.2-.9-1.37-1.6.21-.61.53.95.64.39.09-.91-.6-.4-.73-1.21,1.27.42-1.22-2.06-.87-3.37-.53-.15-1.27-1.09-2.04-1.63.81-.29-1.03-2.21-1.46-2.41,0-.26.02-.52.21-.44-.39-.1-.38-.82-1.07-1.22.41-.74-.49-.97-1.18-1.86.1-.3.48-.04.4-.7-1.36-1.5-1.43-2.62-2.64-4.27.12-.31.51-.06.23-.62-.72.3-.79-.82-.54-1.46-.39.54-1.24-.19-1.42-1.06.32-.44.45.87.8.49.05-.31-.16-.5-.09-.81-.34-.1-.37.34-.66-.21.06-.23.48.23.51-.06-.23-.99-.64-1.15-.93-.95-.51-.62.56-.26.08-.89-.38.29-.84-.24-1.28-.78.4-.49-.21-.44-.06-1.17-.38.18-.71-.54-.75-1.03.18-.15.26.24.51-.06-.66.04-1.17-2.4-1.87-1.71-.01-.62-1.06-.77-1.05-1.4.18-.58.51.33,1.13.51-.12-.57-.58-.99-.7-1.56-1.23.29-1.68-1.84-2.15-2.27.36-.11.84.5,1.12.69.03.34-.16.26-.35.16.11.7.48.31.92.95-.37-.97-.6-1.14-.3-2.26-.5-.47-.37.26-.69.14.21-1.13-2.14-4.03-2.54-5.34-.15-.15-.94-.98-.97-.41-.76-.53-.34-1.54-1.07-1.22.02-.52.49-.17.71-.32.21.19.09.53.09.81.57.27.39-.59.99.23-.36-.71-.66-.69-1.39-1.42.1-.09.19-.19.21-.44-.54-.32-.07.39-.55.42-.38-.34-.28-.9-.91-1.12.67,2.32,1.73,4.46,2.76,6.61.14.7-.53-.18-.39.52.27.52.4.27.8.49-.06.72-.88-.01-1.49-.34-.58-1.19-.48-2.88-1.81-4.13-.23-.41-.09-.99-.38-1.37-.19.57-.2.43-.46-.47-.43-.4-.36.16-.67-.03.13-1.36-.51-1.35-.97-2.29-.02-.47.33-.21.24-.8-.35.24-.84-.08-.94-.77-.02-.47.72.54.53-.24-.28-.1-.29-.33-.29-.55-.16.05-.38-.03-.65-.21-.42-1.29-.65-1.91-.73-3.09-.87.11-.29-1-1.05-1.4.18-.44.38.48.8.49-.29-.5-.63-.97-.7-1.56-.22-.24-.85-.3-.78-.67-.37.39-.41.2-1.15-.33.65,1.01.32,1.71,1.13,2.39-.13.7-.49-.19-.55.42.55.44.84.35,1.01.05.3.26.37.63.77.85-.56.3.19,1.05.54,1.46-.2.53-.64-.44-1.15-.33.2.57.37.51.78.67-.05.24-.19.81.19,1.63.23-.12.71.25,1.14.51-.2.31-.6.24-.6.96.45.25.35.75.57,1.11-.29-.06-.32.38-.55.42.93,1.4,1.54,2.95,2.11,4.51.99.57.64,1.76,1.47,2.41-.16,1.88,2.38,3.3,1.74,4.85.47.13.39.51.78.67-.15.52.03.9.04,1.35-.51-.46-.39-1.09-1.09-1.04.6.02.05-.44-.08-.99-.55-.17-.18.31-.07.71-.76-.45-.85-1.21-1.18-1.85.04-.33.61.49.6.75.34-.45-.88-1.65-1.13-2.39-.17.48.4.61.24,1.09-.55-1.33-1.23-1.6-1.94-2.71,0-.5.88.72.69-.14-.21-.13-.43-.26-.64-.39-.27-1.38-1.31-2.66-2.05-3.34.9.57.08-.69-.2-1.45-.27.02-.66-.23-.37.34-1.16-.65-.22-1.27-1.18-1.85.06-.52.43-.44.72-.5-.07-.44-.97-.77-1.12-.69-.51-.47-.29-1.93-1.02-1.75-.13-.25-.36-1.29-.06-1.17-.69-.34-1.59-1.81-1.89-3.24.57.63.46.59,1.26.96-.04-.55-.15-1.07-.19-1.63-.31-.36-.4.71-.51.06-.59-.04.34.62.43.83-.51.39-1.75-1.05-1.5-2.05-.44-.94-2.07-1.33-1.96-2.53-.21-.13-.42-.26-.64-.39-.07-.55.36-.14.53-.24-.14-.62-1.12-.85-1.03-1.58.18-.44.5.42.8.49-1.04-1.44-2.15-2.73-1.99-4.05-.26-.45-.43-.94-1.07-1.22.02.39-.08.54-.37.34.14-.76-1.21-1.98-1.22-3.2.4.21.78.44.76.85.16-.42-.59-1.89-.93-2.65-.77-.43.24.48-.08.9-.54-.33-.49-.92-1.07-1.22-.09.18-.24.24-.51.06-.06.48.23.52-.07.71-.12-.17-.24-.35-.46-.47.3-1.02.02-1.13-.14-2.16.67.26.22,1.04.89,1.3.16-.48-.23-.69-.06-1.17-.21.45-1.15-.69-1.4-1.24.04-.19.31.03.49.12.23-.56-.35-.75-.22-1.27-.3-.15-.15.54-.39.52-.81-.82-.87-2-1.59-2.86-.47.21.44.67.39,1.19-.04.13-.18.08-.19.26-.19-.78-.63-.81-1.21-1.5-.48.27.03.87.59.93.1.75-.85-.36-.39.52-.49-.3-1.08-1.22-1.15-.33ZM63.68,72.71c.63.34.52,1.02.7,1.56-.54-.38-.65-.96-.7-1.56ZM82.39,116.5c-.62-.24-.78-1.35-.98-.41-.65-.67-.93-1.51-1.13-2.39.56.21.37.41,1.14.51,0,.28-.12.62.09.81.21.13.18-.22.35-.16.11.58.84.87.52,1.64ZM275.65,414.52c.52.35.81.05.76.85-.25.13-.85-.34-.76-.85ZM284.6,409.05c.66.76.8.81,1.74,1.26-.22.5.17.72.59.93-.14.63-.11.73-.45,1.24.72.55.81-.12,1.06-.49.41,1.22-.48,1.54-1.28,1.1.14-1.26-1.56-1.68-1.77-2.79.12-.67.48.44.67.04-.44-.34-.89-1.11-.56-1.29ZM234.93,326.06c-.58-.36-.45-1.05-.88-1.48.61.35.82.88.88,1.48ZM210.35,283.58c.18-.39-.39-1.28.12-1.25-.2.57.65,1.41-.12,1.25ZM193.16,250.74c.11.4.63.63.4,1.19-.42-.17-.85-1.19-.4-1.19ZM92.95,57.77c-.32-.59-.66-1.18-.66-1.92.23.53,1.07,1.67.66,1.92ZM93.3,72.16c-.42.14-1.59-2.36-.81-2.2-.09.9.93,1.28.81,2.2ZM69.36,22.89c.22.08.33-.07.66.21-.07.32.14.5.09.81-.46-.25-.88-.51-.75-1.03ZM89.26,93.68c-.69-1.25-.96-1.82-1.41-2.95.8.83,1.22,1.84,1.41,2.95ZM75.37,67.02c-.17-.45-.88-1.52-.52-1.64.23.42.98,1.48.52,1.64ZM68.9,53.04c-.12.07-.99-.12-.78-.67.1-.36.89.37.78.67ZM44.6,22.08c-.04-.35-.21-.09-.48-.3.35-.67-.73-.69-.38-1.37.72.25,1.16,1.51.86,1.66ZM52.48,42.6c-.22-.36-.7-.59-.57-1.11.77.38.57,1.02.57,1.11ZM59.53,62.98c-.36.12-.82-.76-.72-1.38.6.3.63.85.72,1.38ZM61.51,67.04c-.46-.37-.93-1.62-.51-1.82.05.66.69,1.05.51,1.82ZM64.97,30.03c.42.95,1.17,1.75,1.43,2.77-.9-.65-1.54-2.2-1.43-2.77ZM61.81,81.96c-.43.11-.92-.85-.88-1.48.73.29.86.86.88,1.48ZM64.06,57.82c-.22-.47-.76-.8-.72-1.38.45.26,1.21,1.26.72,1.38ZM66.56,29.31c.16-.33-.68-1.02-.08-.99.11.42.8,1.15.08.99ZM67.33,30.15c-.38.48.11.48.24,1.09-.26-.16-.13.44-.37.34-.3-.7.12-.67-.57-1.1l.05-.54c.22.08.33-.07.66.22ZM67.54,33.31c-.29-.44-.85-.75-.72-1.38.68.26.8.78.72,1.38ZM67.87,55.06c.29.21.52.44.61.75-.61-.48-1.23.32-1.45-.7.29-.43.82.58.85-.04ZM70.02,37.47c-.21-.13-.43-.26-.64-.39.02-.18.03-.35.05-.53.53.16.47.58.59.93ZM71.04,26.57c.49-.51-.34-.54-.4-1.19.53-.35,1.37,1.86.4,1.19ZM69.62,58.02c.09,1.07,1.49,1.76.93,2.65.57-.17,1.05.79,1.05,1.4-.81-1.27-1.31-.75-2.36-1.83.44-.87-.34-.46.1-1.07-.5-.64-1.62-1.88-1.31-2.31,0,.15.48.86.46.47-.35-.42-.53-.9-.54-1.47.51.22.47.69.4,1.19.49.31.77,1.16,1.26.96ZM66.9,78.08c-.45.19-.75-.66-.91-1.12.37-.15.88.6.91,1.12ZM69.28,54.41c-.02.24-.04.48-.07.71-.37-.17-.6-.41-.61-.75.5.54.18-.5.67.03ZM72.75,31.78c-.61-.23-.02-1.02-.73-1.2.02-.56.65-.25.26-.98,1.12.66.12,1.32.47,2.18ZM71.94,42.24c-.48-.29-1.06-.54-.91-1.12.24.4,1.02.56.91,1.12ZM72.43,35.17c.24-.72,1.59.37,1.58,1.16-.33.16-.77-.12-.98-.41.44-.23-.12-.63-.61-.75ZM72.64,67.24c.44-.23-.12-.63-.61-.75-.16-.38-.14-.56.06-.72-.93-.77-.8-2.03-1.76-2.78-.02-.54.8-.32-.09-.81.01-.6.71-.95.85-.05-.2-.1-.38-.18-.35.16,1.05-.36,1.58,1.4,2.33,2.19-.03.3-.06.59-.08.89.33.53,1.14.85,1.03,1.58-.69,0-1.45-1.22-1.67-1.97-.05.2-.19,0-.32-.2.21.47.08,1.11.36,1.54.86.46,1.6.98,1.51,1.88-.57-1.12-.81-.64-1.26-.96ZM72.7,43.09c.3.17.17-.52.53-.24-.25.46.5.45.25.91-.51-.28-.74-.03-1.31-.42.02-.18.03-.36.05-.54.16.1.32.2.48.29ZM68.41,96.21c-.16.33-1.01-.43-.76-.85.29.26.99.35.76.85ZM70.8,86.9c-.77-.04-.76-1.89-.55-1.29.13.45.68.72.55,1.29ZM75.18,40.07c-.21-.13-.43-.26-.64-.39.04-.2.02-.52.21-.44.02.34.58.11.43.83ZM75.96,46.22c-.28-.2-.39-.05-.37.34-.27-.16-.53-.33-.8-.49-.15-.45-.13-.97-.2-1.45.36.57.94,1.05,1.37,1.6ZM75.5,40.27c.4.15.61-.09.86-.23-.03.36.41.5.25.91-1.2-.82.22,1.14-.44,1.05-.03-.68-1.27-1.69-.65-2.1-.01.12-.02.24-.03.36ZM76.01,49.27c.52-.52-.45-.93-.52-1.64.98-.01,1.4,1.72.52,1.64ZM76.41,50.46c.18.54-.47.42-.07.71.33.15.36-.29.69-.15-.02.24-.04.48-.07.72-.25-.14-.55-.37-.51.06-.4-.22-.78-.44-.76-.85.2.1.38.18.35-.16-.44-.43-.44,0-.82-.31,0-.79.79-.02,1.19-.03ZM76.11,55.38c-.67-.43-.97-1.04-.84-1.84.58.48.78,1.12.84,1.84ZM76.66,42.3c.57.59.38,1.54.99,2.12-.68-.4-.79-.83-1.2-1.68.19.08.2-.18.21-.44ZM75.4,70.26l-.64-.4c.18-.54,0-.91-.57-1.11.02-.18.03-.35.05-.53.67.55.84,1.33,1.16,2.04ZM77.53,45.67c-.02-.5-.43-.83-.38-1.37.49.19.84,1.31.38,1.37ZM73.85,94.06c-.63-.62-.61-1.54-1.15-2.21.71-.01.99,1.43,1.15,2.21ZM78.43,41.49c.16-.18.54.06.83.13.27.34.46.7.57,1.11-.19.27-.56.18-.87.23.96.35,1.1,1.09,1.53,1.69-.31.87.07,1.37.28,2.44-.68-.2-1.09-1.86-1.43-2.77-.02.31-.17.38-.37.34-.43-.83-.4-1.14.08-.9-.43-.59-1.77-2.42-1.2-3.38.11.79.34.46.57,1.11ZM78.07,50.73c-.55,0-.93-.14-1.08-1.04.47.93.68.08,1.08,1.04ZM78.37,43.92c.04.38.3.66.24,1.09-.52-.25-.84-1.32-.24-1.09ZM76.4,72.19c.04.27.17.49.45.65-.03.3-.05.6-.08.89.9.74.65,1.15,1.5,2.05-.32-.19-.25.36-.67-.03.05-.71-.42-1.18-.86-1.66-.18.35-.45.55-1.03.13-.09-.47-.27-.9-.2-1.45.51.28.49.8,1.09,1.04.23-.4-.5-1.36-.19-1.62ZM76.17,72.81c-.51-.34-.66-.84-.54-1.46.45.37.39.96.54,1.46ZM79.52,47.84c.14.7-.53-.18-.39.52-.4-.27-.6-.64-.57-1.11.23-.12.78.22.96.59ZM74.54,101.1c-.41-.27-.82-.54-.75-1.03.51.22.63.62.75,1.03ZM79.8,46.68c0,.36-.22.28-.23.61-.42-.2-.5-.57-.41-1.01.21.13.42.26.64.39ZM79.55,62.03c-.02.32-.09.53-.22.62-.41-.56-.95-1.05-.84-1.84.64.27.39.96,1.07,1.22ZM80.22,49.4c.04.89.91,1.41.97,2.29-.3-.78-1.34-1.22-1.32-2.13.21.13.17-.23.35-.16ZM80,53.61c.21.13.43.26.64.39-.12.26-.15.69-.4.7.17-.48-.41-.61-.23-1.09ZM80.84,48.26c.33.07,0-1.13.56-.6.36.69-.37.17-.26.97-.27-.16-.53-.33-.8-.49.12-.26-.4-1.03.08-.89.26.28.21.7.41,1.01ZM78.61,77.51c-.11-.69-.64-.35-.73-1.21.54.17,1.29,1.11.73,1.21ZM81.66,57.46c-.32-.48-.74-.92-.87-1.48.69.31.7.93.87,1.48ZM77.18,107.25c-.3-.26-.68-.49-.59-.93.33-.17.78.37.59.93ZM82.05,62.42c-.14-.56-.58-.99-.52-1.64.56.27.83,1.54.52,1.64ZM80.18,80.56c.4.61.57,1.33.82,2.02-.68-.41-1.64-2-.82-2.02ZM85.83,52.65c-.61-.41-.07.11-.21.44-.53-.16-.17-.72-.59-.93-.25.69.19,1.06.19,1.63-.1.19-.42.98-.69.15.48.13-.16-.58.08-.9-.82-.31-.49-1.15-1.03-1.58.21-.61.17-.94-.19-1.62-.26-.16-.14.44-.37.34-.15-1.45.58-.92,1.59-.73.01.38-.25.22-.37.34.26.16.05.55.27.73.02-.32.09-.53.23-.62.54.37.43.88.8.49.16.33.43.6.24,1.09-.29-.1-.39-.52-.48-.29.25.46.41.96.54,1.46ZM84.98,58.17c.31-.16.46.36.78.67-.4.49.38,1.1.5,1.82-.85-.39.31.6-.1,1.07-.5-.51-.42-1.29-.84-1.84-1.07-.84-1.93-.07-2.24-1.37.73.65,2.27,1.1,1.89-.35ZM80.14,111.72c-.14.21-.78-.52-.69.14.65.63.73.14,1.15.33-.07.32.14.51.09.81-.88-.11-1.32-.59-2.13-.74.16-1.31.01-1.46-.26-2.62.62.44,1.41,1.07,1.83,2.07ZM81.9,83.88c-.47-.05-.81-.47-.91-1.12.39.34.63.74.91,1.12ZM85.16,49.02c-.3-.17-.17.52-.53.24-.45-.61.33-.97.53-.24ZM85.19,61.32c-.42-.26-.85-.52-1.28-.78.01-.23-.18-.37-.11-.63.32-.31,1.29.65,1.39,1.42ZM82.29,85.06c-.02.46.25.75-.23.62.03-.36-.41-.49-.25-.91.16.1.32.19.48.29ZM84.51,72.25c-.02.94-.96-.22-.94-.77.5.17.44.6.94.77ZM85.7,54.08c.15.27.06,1.01-.4.7.02-.46.05-.88.4-.7ZM83.25,85.65c-.1-.05-.19-.09-.18.08.28.16.4.39.45.65-.52-.33-.84-.76-.89-1.3.24.18.59.3.62.57ZM84.71,84.47c.07-.6-.79-.78-.72-1.39.5.24,1.21,1.26.72,1.39ZM88.72,47.05c-.51-.08.13.65.3.38-.01.46-.3.41-.55.42-.23-.67-.41-.42-.71-1.38.38.06.72.21.96.59ZM84.47,121.37c-.51-.22-.41-.73-.57-1.11.51.22.7.59.57,1.11ZM88.76,80.9c-.43-.2-.5-.57-.41-1.01.43.2.5.57.41,1.01ZM87.45,96.73c.06.76-.83.22-.64-.39.44.28.35-.1.64.39ZM89.54,83.46c.68.43,1.24,1.82.81,2.2.19-.83-.69-1.16-1.02-1.76.37.12-.17-.4.21-.44ZM87.68,128.62c-.42-.55-.86-1.09-.84-1.84.52.47,1.26,1.48.84,1.84ZM93.59,60.05c-.01-.35-.48-1.35-.04-1.35.3.22.44,1.37.04,1.35ZM94.65,73.93c-.21.67.23,1.04.18,1.63-.58-.36-.35-1.09-1.23-1.32.1-.39-.26-.57-.08-.99.63.49.47.39,1.12.68ZM92.76,99.61c0,.65-.14.99-.72.5-.15-.46.23-.82-.2-1.45.61.18.41.73.93.95ZM98.03,70.33c-.57-.37-1.09-.76-1.23-1.32.56.37,1.3.66,1.23,1.32ZM96.06,85.95c-.43-.2-.5-.57-.41-1.01.43.2.5.57.41,1.01ZM97.27,80.26c-.54-.38-.96-.81-.88-1.48.52.39.64.96.88,1.48ZM97.54,84.58c.03.9.9,1.41,1.15,2.21-.87-.16-1.06-1.15-1.66-2.15-.2-.08-.35.08-.3-.37.2-.04.45.03.81.31ZM97.34,99.39c-.73-.52-1.04-1.23-1.34-1.95.76.51,1.04,1.24,1.34,1.95ZM100.47,73.15c-.41-.27-.53-.67-.75-1.03.43.13.55-.34,1.02-.13.07.7-.3.54-.27,1.15ZM98.97,71.1c.33-.43-.04-.67-.04-1.35.58.91,1.93,1.19,1.5,2.05-.55-.73-.89-.5-1.45-.7ZM99.75,73.65c.21-.45-.79-1.22-.22-1.27.27.5.66.95.52,1.64-.28-.2-.39-.05-.37.34-.47-.36-.76-.79-.89-1.3.29.12.75.99.96.59ZM99.64,85.68c-.01-.45-.53-.68-.4-1.19.44.16.74,1.23.4,1.19ZM98.78,84.02c.42.31.19-.62.69-.14.16.68-.55.74-.69.14ZM98.75,87.97c.51.22.6.64.92.94-.18.54.11.86.22,1.27-.48-.51-.36-.24-.96-.59.21-.4.25-.65-.41-1.01.02-.32.09-.53.23-.61ZM97.31,116c-.59-.2-.73-.88-1.12-.68.01-.12.02-.24.03-.36-.1-.07-.19-.14-.14-.28.53.04,1.15.61,1.23,1.32ZM94.07,139.72c.05.42.45.65.09.81-.56-.2-.56-1.07-.09-.81ZM100.83,74.7c-.25-.4-.38-.85-.38-1.37.64.12.59,1.42.38,1.37ZM98.73,111.59c-.5-.45-.79-1.01-.86-1.66.51.45.79,1.01.86,1.66ZM103.01,80.37c-.04-.34-.21-.09-.48-.3-.23-.62.28-.9-.54-1.46-.33.08.21.92-.4.7-.29-.54-.3-.95-.04-1.35.88.51,1.86,1.88,1.46,2.41ZM99.76,105.98c.18.66,1.01,1.02.84,1.84-.61-.35-.73-.92-1.23-1.32,0-.43.1-.65.39-.52ZM101.97,91.46c.11.29.16.61.07.99-.6-.19-.55-1.27-.07-.99ZM103.99,82.49c-.22-.14-.36-.13-.5-.12-.11-.29-.16-.61-.08-.99.4.27.59.64.57,1.11ZM103.22,94.3c-.24-.4-1.02-.56-.91-1.12.49.29.8.66.91,1.12ZM103.8,99c-.71-.34-.29-.76-.94-.77.02-.32.09-.53.23-.62.57.31.81.77.72,1.39ZM102.4,95.88c-.09.72.92.95.68,1.74-.75-.23-1.12-1.52-.68-1.74ZM103.93,84.91c-.65-.16-.44-.71-.4-1.19.49.23.28.79.4,1.19ZM103.87,96.4c-.55-.2-.49-.69-.75-1.03.41-.19.85.48.75,1.03ZM105.43,97.74c-.75-.55-.93-.84-1.45-.7-.27-.5.12-.48.24-.79.51.22.6.64.92.95,0-.23-.25-.58.05-.54.63.74.49,1.29.49,2-.22-.08-.33.07-.65-.21-.08-.65.3-.4.4-.7ZM105.54,100.26c-.83-.76-1.26-1.71-1.61-2.69.9-.26,1.4,1.61,1.61,2.69ZM106.45,83.24c-.52-.62-.66-1.41-.98-2.12.55.6,1,1.25.98,2.12ZM105.95,88.61c-.26.06-.73.22-.8-.49.1-.04.8.05.8.49ZM107.48,86.71c.19.86-.7-.36-.69.15,0,.45.75.57.57,1.11-.79-.55-1-1.37-1.32-2.13.48,0,.7.83,1.44.88ZM105.05,101.85c1.01.65.7,2,0,1.89.13-.59.35-.58,0-1.89ZM106.27,101.46c-.27-.16-.53-.33-.8-.49.05-.2.02-.53.21-.44-.09.44.91.38.59.93ZM107.64,93.99c0,.5-.38.26-.69.15.01-.23-.18-.37-.11-.63.27.16.54.33.8.49ZM108.46,90.71c-.16.46-.49.59-1.04.3-.02-.8.73-.8,1.04-.3ZM106.88,100.33c.62.22.49,1.15.22,1.27-.76-.49-.17-.53-.22-1.27ZM109.76,93.02c-.04.31-.02.58.09.81-.56-.57-.28-.88-1.09-1.04.44-.48-.25-.73-.2-1.45.64.45.52,1.24,1.19,1.68ZM110.88,97.3c.16-1.16-1.49-2.39-1.06-3.11.38.83,2.07,2.77,1.06,3.11ZM110.45,96.47c-.32-.19-.25.36-.67-.03-.03-.27-.2-.48-.09-.81.44.55.61.16.76.85ZM113.22,101.19c-.17.48.41.61.24,1.09-.37-.29-.67-.61-.75-1.03.23.1.3-.13.51-.06ZM113.83,116.31c-.29-.46-1.43-1.69-.52-1.64-.16.59.92,1.51.52,1.64ZM111.95,134.62c.09.75-.85.23-.81-.31.38.31.38-.11.81.31ZM114.06,115.69c-.43-.2-.38-.62-.41-1.01.35.3.92-.02.98.41-.3-.01-.35.44-.56.6ZM115.07,115.74c.12.82-.83.49-.83-.13.21-.08.34-.33.83.13ZM116.28,108.17c-.29.65.58.76.38,1.37-.65-.56-.98-1.27-1.34-1.95.32.19.64.39.96.59ZM115.77,115.42l-.64-.39.05-.54c.53.16.47.58.59.93ZM115.3,118.72c.81.51.03.75.36,1.55-.39-.4-.68-1.35-.36-1.55ZM115.78,120.72l-.07.71c-.47-.14-1.09-1.07-.57-1.11-.02.46.54.38.64.39ZM114.41,138.97c-.22-.3-.18-.72-.24-1.09,1.12,1.88,2.22,3.77,2.83,5.89-.94-.26-.26-1.25-1.03-1.58-.02.46.25.75-.23.62-.32-.61.19-.53.12-1.25-.76-.39-.39-1.3-1.2-1.68.11.4.4.73.22,1.27-.39-.16-.32-.54-.78-.67-.13-.56.75-.21.24-.8-.41-.31-.19.62-.69.15-.2-.25-.26-.56-.25-.91.28-.09.84.35,1.01.05ZM116.53,118.15c-.16.87.59,1.33.65,2.1-.54-.2-.59.43-1.15-.33-.11-.77.39-.37.56-.6-.32-.37-.42-.83-.91-1.12-.02-.6.4-.36.85-.05ZM117.66,111.47c-.53-.33-1.14-.62-1.07-1.22.38.4,1.11.63,1.07,1.22ZM115.88,125.12c-.21-.13-.43-.26-.64-.39.02-.18.03-.36.05-.54.42.21.68.49.59.93ZM120.14,128.3c.2.2.31.43.27.73-.98-.78-.14-1.83-.28-2.44-.26-.16-.53-.32-.8-.49-.02-1.31-.67-2.32-1.38-3.3-.49.08-1.04-.16-1.31-.43.65-.39-.5-.41-.39-1.19.93.66,1.56,1.23,2.4,1.47-.32,1.26,1.37,2.44,2.04,3.52-.24-.04-.81-.71-.82-.31.51.39.68.94,1.23,1.32,0-.23-.25-.58.05-.54-.03.65,1.18,1.61.67,1.92-.12-.79-1.33-1.51-1.46-.7.68-.23,1.26,1.75,1,1.93-.25-.52-.76-2.13-1.21-1.5ZM121.31,128.45c.19-.1.74.39.94.77-.41-.12.25.66.08.99-.62-.45-.77-1.13-1.02-1.76ZM117.49,111.55c.48.64.77,1.36.99,2.12-.51-.57-1.37-1.68-.99-2.12ZM117.33,118.64c-.04-.32-.49-.46-.25-.91.57,0,.61,1.06.25.91ZM118.43,121.39c-.42-.22-1.08-1.2-.56-1.28.07.48.49.8.56,1.28ZM119.2,114.87c-.26.12-.83-.49-.75-1.03.51.22.63.62.75,1.03ZM117.53,145.41c-.45.08-.49-.8-.97-.41-.11-.81,1.02-.13.97.41ZM118.4,146.89c-.39.18-.64-.58-1.28-.78.02-.18.03-.36.05-.54.55.38,1.23.69,1.23,1.32ZM120.27,125.17c-.24-.3-1.1-1.19-.55-1.29.12.46.59.75.55,1.29ZM121.65,121.28c-.43-.21-.68-.49-.59-.93.42.21.68.49.59.93ZM122.23,131.28c.15.38.42.72.57,1.1-.54-.31-.88-.16-1.1-.87.3.17.17-.52.53-.24ZM122.94,134.55c-.04.31-.02.58.09.81-.11-.07-.22-.13-.32-.2-.02.1-.04.2-.18.08,0-.95-.48-.01-.82-.31-.04-.38-.43-.6-.24-1.09.63.52.93.39,1.46.7ZM123.67,132.16c-.05.25,0,.69-.23.62-.17-.72-1.02-1.13-.82-2.02.64.58.46,1.16,1.05,1.4ZM118.67,185.61c.02.61-.4.36-.85.05.03-.24-.04-.44-.11-.63.23-.12.78.22.96.59ZM121.89,153c.42.38.58.87.54,1.46-.54-.28-1.22,0-1.26-.96.57.24,1.01.39.72-.5ZM124.32,137.85c-.28-.52-.04-.79.24-.8-.92-.78-1.62-2.56-1.21-3.38.21,1.36,1.16,2.6,1.89,3.24-.33-.07-.47.22-.56.6.41-.13.46-.09.8.49.02.38-.25.22-.37.34.62.06.31.23.61.75.16-.57.68.25.6.75-.3.15-.52-.49-1.12-.69-.4-1-.17-1.19-.89-1.3ZM126.47,123.86c.01.9,1.13,1.03,1.39,1.42-.15.8-.53-.09-1.17-.15.21-.44-.33-.54-.61-.75,0-.44.1-.65.39-.52ZM125.76,136.85c.15.67.46,1.27.67,1.92-.4-.33-.71-.7-.91-1.12.27.19-.52-1.15.24-.8ZM127.63,129.49c-.23.12-.98-.27-.94-.76.27.27.96.36.94.76ZM128.97,127.85c-.5-.17-.44-.59-.94-.77-.02.46.25.75-.22.62-.11-.47-.88-1.52-.35-1.72.56.47,1.35.85,1.51,1.87ZM126.6,140.57c-.29.44.85,1.07.24,1.09-.3-.34-.99-1.25-.24-1.09ZM128.36,136.17c-.42-.49-.65-1.07-1.04-1.58.27-.07,1.45,1.34,1.04,1.58ZM128.98,129.56c-.22-.14-.36-.13-.5-.11,0-.41-.63-1.4-.2-1.45,0,.62.82.88.7,1.56ZM129.78,146.3c-.7-.73-1.41-2.11-2.07-3.16-.1.3-.13.73-.55.42.66-.52-.12-.67-.19-1.63.61.35.83.76,1.33.25-.5,1.37,1.16,2.62,1.47,4.12ZM123.4,194.56c-.1-.52-.87-.74-.72-1.38.34.31,1.18,1.27.72,1.38ZM127.05,162.78c-.14.41,0,.68.43.83-.26.79-1.64-.34-1.74-1.26.79.64.8.59,1.31.43ZM130.23,132.41c-.64-.73-.84-1.67-1.29-2.49.16.1.32.2.48.29.12.8.68,1.4.81,2.2ZM128.08,149.99c-.26-.57-1.09-1.77-.65-2.1.07.66,1.21,1.72.65,2.1ZM129.13,147.8c0,.91.71,1.49.79,2.38-.82-.6-1.38-2.22-1.27-2.67.02.3.34.34.48.29ZM130.98,133.43c-.26-.16-.13.44-.37.34-.01-.45-.53-.67-.4-1.19.4.22.78.44.76.85ZM132.08,136.18c-.59-.3-.8-.78-.89-1.3.33.42.86.74.89,1.3ZM130.35,147.41c.81.6.46.96.34,1.73-.28-.19-.5-.27-.65-.22.01-.12.02-.23.03-.36.56.06.51-.4.28-1.15ZM132.59,134.23c.28.79,1.05,1.34.97,2.29-.46-.68-.91-.18-1.28-.78-.2-.84.82-.36.42-.88-.31-.11-.34.33-.83-.13.06-.52.43-.44.72-.5ZM133.08,138.12c-.2.04-.45-.02-.82-.31.23-.56-.35-.75-.22-1.27.11.07.21.13.32.2-.13.58.44.65.72,1.38ZM132.61,152.2c-.32-.66-2.09-2.07-1.15-2.22,0,.91,1.18,1.28,1.15,2.22ZM133.34,156.99c-.37-.29-.67-.6-.75-1.02.26-.13.83.49.75,1.02ZM134.38,156.68c-.24-.94-2.01-2.73-1.06-3.1,0,1.08,1.37,2.45,1.06,3.1ZM134.68,162.54c-.51-.22-.63-.62-.75-1.03.28-.13.73.54.75,1.03ZM135.5,160.96c-.34,1.13.68,1.63.78,2.56-.78-.21-1.13-1.96-1.59-2.87.38.31.38-.11.81.31ZM136,161.08c-.05,1.03,1.13.58,1.2,1.68-.69-.61-.42-.28-.98-.41-.24-.39-.92-1.45-.22-1.27ZM138.25,165.86c-.57-.25-.81-.66-.91-1.13.33-.13,1.14.49.91,1.13ZM140.08,153.56c-.71-.25-.68-.83-.89-1.3.33.42.86.74.89,1.3ZM140.29,153.12c-.42-.16-.85-1.19-.39-1.19-.03.47.67.61.39,1.19ZM140.39,155.64c-.3-.15-.15.54-.39.52-.42-.21-.68-.49-.59-.93.38.37.73-.39.97.41ZM142.17,154.66c-.17,0-.74-.4-1.01-.05.35.24.3.66.24,1.09-.6-.58-1.49-1.03-1.51-1.87.97.85,2.02-.66,2.29.83ZM139.4,171.67c-.51-.07-.86-1.06-.41-1.01.03.38.61.52.41,1.01ZM141.92,157.34c-.42-.21-.68-.49-.59-.93.42.2.68.49.59.93ZM140.48,169.12c.42.61,1.18,1.77.81,2.2.55.36.56,1.54,1.23,1.32-.02.24-.04.48-.07.71-.52-.2-.46-.64-.8-.49-.19-.9-.4-1.31-1.07-1.22-.13-.67.29-.28.39-.52l-.8-.49c.15-.92.77-.36.31-1.51ZM142.53,174.34c-.12,1.01-1.38-.5-1.24-1.14.23.1.3-.13.51-.06.53.87-.3.93.73,1.21ZM143.93,175.58c.03.83-.65.28-1.19.03.01-.29-.39-.39-.27-.73.85.23.64.67,1.46.7ZM143.69,179.97c-.38-.34-.81-.66-.73-1.2.52.27.75.68.73,1.2ZM143.45,229.53c.35.25,1.07,1.2.56,1.28.03-.47-.56-.79-.78-.67.02-.32.09-.53.23-.61ZM148.96,186.79c-.1,1.05-1.86-.77-1.08-1.04.08.7.64.35,1.08,1.04ZM144.77,231.66c.56.66,1.64,1.98,1.11,2.57-.26-1.12-.66-.21-1.14-.51.05-.67.48-.63.76-.86-.65-.24-1.22-.96-.73-1.2ZM147.07,235.91c-.11-.4-.56-.65-.57-1.11.5-.34,1.27,1.41.57,1.11ZM155.9,183.11c-.45-.36-.69-.82-.71-1.38.64.28.67.83.71,1.38ZM157.71,185.35c.87.04.36.65.57,1.11.28-.57.96-.05,1.35.07-.03.86-1.19-.47-1.22.39.22.08.33-.07.66.21.11.2.26,1.21-.1,1.07-.11-.93-3.25-3.08-1.57-3.05-.28-.56-1.34-1.66-.83-2.02.51.16,1.42,1.69,1.14,2.21ZM159.03,185.78c-.67-.55-.99-1.26-1.34-1.95.62.57,1.27,1.13,1.34,1.95ZM153.21,244.39c.09.71,1.57,1.67.98,2.12-.29-.67-1.55-1.6-.98-2.12ZM160.67,188.11c-.05.25,0,.69-.23.62-.08-.81-.33-1.07-.91-1.12.27-.67.71.08,1.13.51ZM161.05,191.18c-.17.47.53.56.24,1.09-.4-.3-.81-1.34-.24-1.09ZM162.42,189.19c0,.43-.1.65-.39.52,0-.22.08-.49-.11-.63-.12-.12-.32-.2-.3-.38.27.16.53.33.8.49ZM156.96,251.23c-.22-.08-.33.07-.66-.21.19-.49-.2-.71-.24-1.09.5.34.94.71.89,1.3ZM163.81,196.08c-.22,0,.12.7.09.81.23.1.3-.13.51-.06.45.69.1,1.16-.58.78-.3-.78-.79-1.47-.97-2.29.47.44.81.52.94.77ZM157.54,254.04l.07-.71c.63.24.54,1.23-.07.71ZM165.31,199.84c.36.35.64.73.55,1.28-.51-.28-.66-.72-.73-1.2.1.05.19.09.18-.08ZM162.1,259.48c.04.38.3.66.24,1.09-.21-.16-.55.43-.66-.21.38.18.42-.25.05-.54-.12.2-.29.29-.53.24.03-.36-.41-.49-.25-.91.62.57.53-.24,1.15.33ZM168.34,203.58c.14.68,1.17,1.85.81,2.2-.09-.47-.52-.79-.73-1.2-.07.32.14.5.09.81-.36-.31-.78-.85-1.12-.68.25-.5.57-.86.95-1.12ZM163.53,262.25c-.31-.11-.44.14-.83-.13.08-.44.75-.65.83.13ZM169.4,206.69c-.03.86-.44.97-.93.94.03-.24-.04-.44-.11-.63.48.15.36-.85,1.04-.31ZM163.73,263.7c-.42-.2-.68-.48-.59-.93.42.21.68.49.59.93ZM170.6,208.37c-.48-.69-1-1.36-1.14-2.22.5.74.75.82,1.05,1.4-.13-.04-.2.04-.19.26.19.14.37.28.29.55ZM170.82,209.64c-.23-.09-.22.28-.37.34-.78-.61-1.11-1.43-1.3-2.31.46.33.53-.1.99.23.14.62.57,1.11.68,1.74ZM166.14,266.87c-.52-.38-.98-.63-1.15-.33.02-.52-.48-.81-.56-1.28.98.51.13-.56.71-.32,0,.8.82,1.22,1,1.94ZM172.29,210.16c0,.36-.22.28-.23.62.16.1.2-.03.34.02.1.7-.28.45-.69.14,0-.23.08-.49-.11-.63-.05.19-.27.04-.5-.11.02-.18.03-.36.05-.54.77.56.59.49,1.13.51ZM172.05,212.67c.46.36.46.93.72,1.38-.68-.26-1.22-1.11-.72-1.38ZM174.33,215.39c.28.38.71.7.73,1.2-.61-.17-.48-.69-.75-1.03-.05.12-.04.35-.19.26.02-.25.11-.35.21-.44ZM175.36,218.85c-.05-.55-.62-.85-.54-1.46.43.27,1.01,1.35.54,1.46ZM175.04,218.65c.02.16.11.29.3.37,0,.43-.1.65-.39.52-.01-.28-.23-.46-.27-.73.21.13.17-.22.35-.16ZM176.6,221.88c-.82-.54-1.15-1.3-1.32-2.13.77.55.76,1.47,1.32,2.13ZM177.78,221.85c-.75.02-1.12-.89-1.37-1.6.7.42,1.3.89,1.37,1.6ZM178.42,225.83c-.07.21-.26.2-.23.62-.64-.45-1.13-.97-1.02-1.76.41.7,1,1.24,1.25,1.14ZM183.97,233.39c-.42-.21.19.44-.07.71-.41-.12-.61-1.18-.24-1.09,0,.36.27.06.3.38ZM214.67,289.82c.06.43.35.75.22,1.27-.69-.37-1.03-.9-1.39-1.42.02-.18.03-.36.05-.53.6.69.46.6,1.12.68ZM216.59,294.59c.12-.8-1.05-1.25-.2-1.45-.03.43.74,1.35.2,1.45ZM219.52,360.83c-1.29-.98.54,1.43-1.06.48.13-.65.23-.53-.06-1.17.31,0,1.05-.08,1.12.69ZM217.74,359.93c0-.23.08-.49-.11-.64-.29-.11-.76.47-.99-.23.15-.2.53.04.55-.42.47.7,1.16.27,1.6.98-.24.31-.41.75-1.04.31ZM224.48,307.74c.47.3.56.77.73,1.21-.3.15-.52-.49-1.12-.68-.07-.56.35-.17.39-.52ZM220.68,362.87c-.09.53-.51.42-.74.68-.01-.45-.75-.57-.57-1.1.65.18.64.29,1.31.43ZM225.72,310.77c-.18-.76-.68-.3-.75-1.02.13-.23,1.43.93.75,1.02ZM220.8,363.32c.35.18.49.46.43.83-.29-.05-.51-.1-.64-.39.19.08.2-.18.21-.44ZM249.41,350.05c.02-.63-.81-.88-.87-1.48.69.21,1.35,1.31.87,1.48ZM250.73,352.18c-.33-.71-.91-1.3-.98-2.11.71.53,1.09,1.21.98,2.11ZM251.68,352.95l-.64-.39c.02-.18.03-.36.05-.54.53.16.48.58.59.93ZM261.26,404c-.06.59-.52.41-1.02.13-.57-.54-1.06-1.52-1.98-2.34.04-.2.02-.52.21-.44.79.47,1.94,1.71,2.79,2.66ZM263.28,407.69c-.05.32-.16.53-.39.52-.57-.88-1.37-1.66-1.78-2.6.78.67,1.39,1.42,2.17,2.09ZM266.63,377.24c-.4.06-1.3-.8-1.39-1.42.76.34,1,.91,1.39,1.42ZM266.31,411.44c-1.09-.96-1.81-1.91-2.84-2.12l.07-.71c.62.73,2.28,1.12,2.78,2.83ZM274.46,385.63c.28.16.49.35.62.57-.04.9-1.06-.07-.95,1.12-.34-.47-1.02-.79-.88-1.48.46.91,1.18.87,1.2-.21ZM271.42,421.75c-.02.52-.49.17-.7.33-.04-.38-.43-.6-.24-1.09.38.23.44.59.94.76ZM275.64,412.81c.1.44.85.4,1.14.51.13.67-.29.28-.39.52.12.12.17.26.13.46-.45-.64-.69-1.27-1.12-.68-.18-.34,0-.72.24-.8ZM281.09,403.3c.09-.44-.61-.52-.41-1.01.52.07.86,1.06.41,1.01ZM283.09,407.17c-.64-.56-1.26-1.13-1.34-1.95.39.67,1.28,1.13,1.34,1.95ZM284.34,410.02c-.37-.29-.74-.58-.57-1.11.41.27.6.64.57,1.11ZM285.97,408.94c-.09.5-.02.64.29.55.04.76-.97-.29-.78-.67.22.14.36.13.5.11ZM295.68,435.12c-.32.15-.9-.45-1.1-.87.24-.11,1.15.34,1.1.87Z"/><path class="cls-1" d="M121.23,113.09c-.26-.09.11.4-.2.26,1.64,1.13,1.77,2.95,2.98,4.28-.34-1.44-1.08-2.7-1.83-3.95-.19-.09-.17.24-.21.44-.22-.36-.63-.62-.75-1.03Z"/><path class="cls-1" d="M41.06,34.65c.01.56.66.84.89,1.3-.2-.48-.28-1.01-.89-1.3Z"/><path class="cls-1" d="M56.05,58.58c-.33-.28-.43-.14-.65-.21.02.27.39.39.62.57-.1.09-.19.19-.21.44.51.18.25-.35.25-.79Z"/><path class="cls-1" d="M58.23,31.76c-.4-.52.39.9-.1,1.07.33.15.46-.1.69-.15-.05-.73-.54-.19-.59-.93Z"/><path class="cls-1" d="M57.65,43.31c-.34-.25-.52-.17-.53.24.23-.1.49.18.62.57.38.18-.14-.59-.09-.81Z"/><path class="cls-1" d="M58.91,40.68c.12-.12.38.04.37-.34-.37-.28-.62-.35-.82-.31-.01.35.52.45.43.83.18.08.1-.13.02-.18Z"/><path class="cls-1" d="M56.84,66.44c-.14.68.4.24.64.39.41.3-.25.17-.07.72.9.5,1.16,1.29,1.32,2.13.24.05.43-.02.67.03-.59-.48-1.35-1.73-1.59-2.86-.56-.12-.67-.54-.98-.41Z"/><path class="cls-1" d="M60.31,38.33c1,1.62,1.44,2.81,2.82,4.18.06-.28-.23-.63.05-.54-.15-.68-.32-.29-.76-.85.5-.1-.99-2.12-.35-1.72.15-.51-1.18-1.01-1.76-1.08Z"/><path class="cls-1" d="M57.72,75.1c-.12.58.76,2.16,1.41,2.95-.49-.97-.92-1.97-1.41-2.95Z"/><path class="cls-1" d="M65.39,12.9c-.32.16-.39-.39-.96-.59.29.97.58.79.91,1.12.24.07-.04-.27.05-.54Z"/><path class="cls-1" d="M62.17,41.92c.36.46.4,1.07,1.05,1.4.14-.69-.7-.93-1.05-1.4Z"/><path class="cls-1" d="M61.46,71.16c-.35-.32-.26.2-.51.06,0,.39.39.62.59.93.39.13-.45-.57-.08-.99Z"/><path class="cls-1" d="M68.08,29.29c.15.09.14-.14.19-.26.39.16.32.54.78.67-.16-.61-.27-1.24-1.03-1.58.08.62.41.7.06,1.17Z"/><path class="cls-1" d="M70.97,47.13c.61.6.13.7.54,1.46.58.13.55.06.99.23-.55-.5-1.11-1.67-1.53-1.69Z"/><path class="cls-1" d="M68.22,87.4c.19-.4.53.66.82.31.09-.44-.61-.52-.41-1.01-.3.3-.86-.37-1.06.48.37.29.67.61.75,1.03.38.18-.14-.59-.09-.81Z"/><path class="cls-1" d="M69.16,90.05c.05.78,1.05,1.12.82,2.02.56.29.03-.49.37-.34-.41-.55-.67-1.18-1.19-1.68Z"/><path class="cls-1" d="M71.1,92.76c.01-.33.23-.26.23-.62-.64-.68-.97-1.5-1.13-2.39-.66.48.61,1.54.28,2.44.69.25.64.85.54,1.46.56.75.77.65,1.41,1.24-.06-.32-.2-.6-.25-.91-.35-.32-.26.2-.51.06-.13-.11-.15-.28-.3-.37.1-.24.52.16.39-.52-.22-.35-.38-.45-.64-.39Z"/><path class="cls-1" d="M84.78,38.59c-.19-.08-.11.12-.02.18,0,.26-.02.52-.21.44.03.27.39.39.62.57-.06-.43-.28-.78-.39-1.19Z"/><path class="cls-1" d="M89.34,53.1c-.35-.12.26,2.12,1.11,2.57-.03-.24-.8-.97-.25-.91-.08-.65-1.03-.9-.86-1.66Z"/><path class="cls-1" d="M91.66,60.76c.14.65-.37,1.22.5,1.82.61-.48-.68-1.58.17-1.79-.5-.54-.18.5-.67-.04Z"/><path class="cls-1" d="M92.6,94.03c-.51-.12.14.59.09.81.27.21.44-.05.48.29.13.12.16.02.18-.08.01-.12.02-.24.03-.36-.05.21-1-.37-.48-.29-.03-.32-.3-.02-.3-.38Z"/><path class="cls-1" d="M98.95,76.75c-.32.16.39,1.3.5,1.82-.6.09-.39,1.39-.34,1.87.48-.27.78-.89,1.14-1.38-.94.31-.32-.94-.84-1.84-.25.06-.41-.05-.46-.47Z"/><path class="cls-1" d="M99.63,82.09c-.26.36.61,1.66.79,2.37.54.27-.35-1.04.24-.8-.24-.19-.98-.82-1.03-1.58Z"/><path class="cls-1" d="M100.33,80.06c-.51-.45-.28.21-.03.36-.02.31-.16.39-.37.34.03.27.25.45.27.73.02-.33.5-.79.48.29.22.08.18-.37.23-.62-.41-.27-.6-.64-.57-1.11Z"/><path class="cls-1" d="M103.54,87.32c-.04-.27-.26-.45-.27-.73-.48-.43-.35.3-.83-.13.26.43.49.34,1.1.86Z"/><path class="cls-1" d="M110.57,91.62c-.35.1-.2-.14-.64-.39.07.62-.57-.12-.4.7.16.1.32.2.48.29.1-.37.23-.73.5.11.41.21-.19-.44.07-.71Z"/><path class="cls-1" d="M109.68,104.69c-.08-.41-.27.04-.02.18-.13.17-.37.12-.67-.03.13.5,1.06.79.99.23-.19-.08-.28-.21-.3-.37Z"/><path class="cls-1" d="M107.04,125.75c.01.22.15.2.16.1.51.28-.02,1.04.73,1.2.2-.66-.37-.97-.54-1.46-.18-.06-.14.29-.35.16Z"/><path class="cls-1" d="M118.84,106.14c.08-.72-.23-1.27-.68-1.74-.16.87.33,1.45.3,2.26.78,0,.93,1.12,1.53,1.7-.1-.12-.57-2.3-1.14-2.21Z"/><path class="cls-1" d="M119.15,108.22c.32.77,1.14,1.3,1.15,2.21,1.06-.33.91,2.28,1.91,3.06.15-.06.14-.43.37-.34-.39-.56-1.15-.96-.84-1.84-.8-.72-1-1.71-1.45-2.59-.22-.08-.17.37-.23.62-.38-.34-.28-.9-.91-1.13Z"/><path class="cls-1" d="M120.39,105.77c-.83.63.88,3.75,1.63,4.21-.61-1.32-1.99-3-1.63-4.21Z"/><path class="cls-1" d="M124.79,116.59c.18.6.42,1.18.68,1.74.36-.17-.35-1.32-.68-1.74Z"/><path class="cls-1" d="M128.3,124.23c.1,1.04,1.15,3.12,1.95,4.41.2-.81-.67-1.13-.19-1.63-.69.19-.48-1.17-1.21-1.5-.03-.63.83.11.4-.7-.33.47-.64.12-.96-.59Z"/><path class="cls-1" d="M129.03,123.55c-.48.23.54,1.23.68,1.74.48.14-.17-.58.08-.89-.62-.31-.64-.13-.77-.85Z"/><path class="cls-1" d="M130.39,128.91c.23,1.1.66,2.09,1.24,3.03.85-.96-.59-2.2-1.24-3.03Z"/><path class="cls-1" d="M137.41,144.18c.13.45.45.8.87,1.48l.05-.54c-.62-.18-.41-.72-.93-.95Z"/><path class="cls-1" d="M142.81,151.46l-.96-.59c.23.77.94.44,1.05,1.4.38.18-.14-.59-.09-.81Z"/><path class="cls-1" d="M146.6,159.64c-.7.63.87.61.35,1.72.14-.02.28-.03.5.12.09-.78-.59-1.21-.84-1.84Z"/><path class="cls-1" d="M153.67,172.67c-.08-.41-.27.04-.02.18-.08.34-.46.1-.69.15.2.48.86.75.71,1.38,1.16.16.99,1.16,1.51,1.87.5.54.18-.5.67.03-.65-.67-.68-1.63-1.48-2.23,0-.33.23-.26.23-.62-.27.15-.75-.38-.94-.76Z"/><path class="cls-1" d="M165.06,195.34c-.02.92,1.25,1.25,1.14,2.21.22.08.17-.37.23-.61-.85-.36-.52-1.25-1.37-1.6Z"/><path class="cls-1" d="M173.19,209.58c-.33.16.56,1.93.84,1.84-.25-.63-.76-1.13-.84-1.84Z"/><path class="cls-1" d="M178.58,224.22c.34.1.55-.06.85-.05-.08-.42-.38-.74-.75-1.03-.16.41.3.55.43.83-.05.34-.65-.8-.53.24Z"/><path class="cls-1" d="M208.67,276.31c-.52.14.4,1.06.36,1.54.13.12.16.02.18-.08.01-.12.02-.23.03-.36-.45-.25-.35-.75-.57-1.11Z"/><path class="cls-1" d="M203.39,339.98c.34.81.89,1.53,1.13,2.39.69.08.98,1.22,1.34,1.95.13.05.18-.08.34.02-.01-.17.08-.13.18-.08-1.17-1.35-1.77-2.95-2.98-4.28Z"/><path class="cls-1" d="M255.59,354.4c.61.62.38-.39.99.23-.02-.16-.15-.28-.13-.46l-.32-.2c.17.83-.72-.4-.55.42Z"/><path class="cls-1" d="M258.37,360.84c-.1,1.01.63-.41.8.49.45.1,0-.77-.43-.83.02.39-.09.54-.37.34Z"/><path d="M133.68,272.25h164.05v66.84h-167.4c-.29-15.39.85-47.14,3.34-66.84Z"/></svg>